<?xml version="1.0" encoding="utf-8"?>
<!-- Generator: Adobe Illustrator 26.5.0, SVG Export Plug-In . SVG Version: 6.00 Build 0)  -->
<svg version="1.1" id="Calque_1" xmlns="http://www.w3.org/2000/svg" xmlns:xlink="http://www.w3.org/1999/xlink" x="0px" y="0px"
	 viewBox="0 0 1952 96" style="enable-background:new 0 0 1952 96;" xml:space="preserve">
<style type="text/css">
	.st0{fill:#EAEAEA;}
</style>
<path class="st0" d="M1568,24h-4v4h4V24z"/>
<path class="st0" d="M1564,0h-4v4h4V0z"/>
<path class="st0" d="M1564,8h-4v8h4V8z"/>
<path class="st0" d="M1568,16h-4v4h4V16z"/>
<path class="st0" d="M1576,12h-4v4h4V12z"/>
<path class="st0" d="M1572,20h-4v4h4V20z"/>
<path class="st0" d="M1568,28v4h4v4h4v-8H1568z"/>
<path class="st0" d="M1568,44v8h4v4h-4v-4h-4v-8h-4v12h4v8h-4v28h16V40h-4v4H1568z M1572,76h-4v-4h4V76z M1572,64h-4v-4h4V64z"/>
<path class="st0" d="M1564,36v8h4v-4h4v-4H1564z"/>
<path class="st0" d="M1564,28h-4v8h4V28z"/>
<path class="st0" d="M1576,8V0h-4v4h-8v4H1576z"/>
<path class="st0" d="M1628,44h-4v-8h-4v12h4v4h4v4h4v4h-4v-4h-4v-4h-4v12h4v4h-4v24h16V52h-4v-4h-4V44z M1632,68h-4v-4h4V68z"/>
<path class="st0" d="M1636,44h-4v4h4V44z"/>
<path class="st0" d="M1636,28h-4v4h4V28z"/>
<path class="st0" d="M1632,16h-4v4h4V16z"/>
<path class="st0" d="M1636,20h-4v4h4V20z"/>
<path class="st0" d="M1624,24h-4v4h8v-8h-4V24z"/>
<path class="st0" d="M1624,16h-4v4h4V16z"/>
<path class="st0" d="M1628,8h-4v4h4V8z"/>
<path class="st0" d="M1624,4h-4v4h4V4z"/>
<path class="st0" d="M1620,0h-4v4h4V0z"/>
<path class="st0" d="M1632,0h-4v4h4V0z"/>
<path class="st0" d="M1644,0h-4v4h4V0z"/>
<path class="st0" d="M1652,4h-8v4h8V4z"/>
<path class="st0" d="M1656,0h-4v4h4V0z"/>
<path class="st0" d="M1656,12h-4v4h4V12z"/>
<path class="st0" d="M1648,12h-4v4h4V12z"/>
<path class="st0" d="M1632,8v4h4v4h4V8H1632z"/>
<path class="st0" d="M1616,8h-4v8h4V8z"/>
<path class="st0" d="M1612,4h-4v4h4V4z"/>
<path class="st0" d="M1604,0h-4v4h4V0z"/>
<path class="st0" d="M1604,8h-4v8h4V8z"/>
<path class="st0" d="M1628,32h-4v4h4V32z"/>
<path class="st0" d="M1628,36v8h4v-4h4v-4H1628z"/>
<path class="st0" d="M1376,24h-8v4h4v4h-4v4h4l0-4h4L1376,24z"/>
<path class="st0" d="M1372,48v-8h-4l0-4h-4l0,8h4v8h8v-4H1372z"/>
<path class="st0" d="M1416,44h-4V32h-4v8h-4v4h4v4h4l0,4h4V44z"/>
<path class="st0" d="M1416,40h4v-8h4v-4c-2,0-6,0-8,0v-4h-4v4h4V40z"/>
<path class="st0" d="M1352,0h-4v4h4V0z"/>
<path class="st0" d="M1360,0h-4v4h4V0z"/>
<path class="st0" d="M1368,0h-4v4h4V0z"/>
<path class="st0" d="M1368,12V8h-4c0,2,0,6,0,8h4v4h4v-4h-4V12z"/>
<path class="st0" d="M1356,16h4v-4h-4V8h-4v4l4,0L1356,16z"/>
<path class="st0" d="M1360,20h-4v4h4V20z"/>
<path class="st0" d="M1368,20.1h-4v4h4V20.1z"/>
<path class="st0" d="M1364,24.1h-4V32h4V24.1z"/>
<path class="st0" d="M1380,36l0-4h-4l0,4H1380z"/>
<path class="st0" d="M1376,36h-4v4h4V36z"/>
<path class="st0" d="M1420,20h-4v4h4V20z"/>
<path class="st0" d="M1416,12l-4,0l0,4h4L1416,12z"/>
<path class="st0" d="M1424,12h-4v4h4V12z"/>
<path class="st0" d="M1428,16h-4v4h4V16z"/>
<path class="st0" d="M1432,8h-4v4h4V8z"/>
<path class="st0" d="M1436,0h-4v4h4V0z"/>
<path class="st0" d="M1424,4h-4v4h4V4z"/>
<path class="st0" d="M1420,0h-4v4h4V0z"/>
<path class="st0" d="M1412,20h-4v4h4V20z"/>
<path class="st0" d="M1408,28.1h-4v4h4V28.1z"/>
<path class="st0" d="M1404,36h-4v4h4V36z"/>
<path class="st0" d="M1364,4h-4v4h4V4z"/>
<path class="st0" d="M1680,0h-4v4h4V0z"/>
<path class="st0" d="M1688,0h-4v4h4V0z"/>
<path class="st0" d="M1692,4h-4v4h4V4z"/>
<path class="st0" d="M1684,4h-4v4h4V4z"/>
<path class="st0" d="M1692,12h-4v4h4V12z"/>
<path class="st0" d="M1700,0h-4v4h4V0z"/>
<path class="st0" d="M1708,4h-4v4h4V4z"/>
<path class="st0" d="M1712,0h-4v4h4V0z"/>
<path class="st0" d="M1720,4h-4v4h4V4z"/>
<path class="st0" d="M1724,8h-4v4h4V8z"/>
<path class="st0" d="M1716,12h-4v4h4V12z"/>
<path class="st0" d="M1708,12h-4v8h4V12z"/>
<path class="st0" d="M1712,20h-4v4h4V20z"/>
<path class="st0" d="M1712,28h-4v4h4V28z"/>
<path class="st0" d="M1708,24h-8v4h8V24z"/>
<path class="st0" d="M1704,32h-8v4h8V32z"/>
<path class="st0" d="M1704,36v4h-8v4h4v4h8v4h-8v-4h-4v8h4v8h4v4h-4v-4h-4v28h16V60h-4v-4h4V44h-4v-4h4v-4H1704z M1708,88h-4v-4h4
	V88z"/>
<path class="st0" d="M1700,20h-4v4h4V20z"/>
<path class="st0" d="M1732,0h-4v8h4V0z"/>
<path class="st0" d="M1732,12h-8v4h8V12z"/>
<path class="st0" d="M1700,8h-4v8h4V8z"/>
<path class="st0" d="M1684,12h-8v4h8V12z"/>
<path class="st0" d="M0,92h16V60h-4v-4h4v-4h-4V40H8V28c-2,0-6,0-8,0v4h4v12h4v8H4v-8H0v20h4v4H0V92z M12,72H8v-4h4V72z M4,56h4v4H4
	V56z"/>
<path class="st0" d="M20,44v-4h-4v12h4v-4h4v4h4v-8H20z"/>
<path class="st0" d="M28,36h-8v4h8V36z"/>
<path class="st0" d="M44,44h-4v8h4V44z"/>
<path class="st0" d="M8,4V0C6,0,2,0,0,0v4C2,4,6,4,8,4z"/>
<path class="st0" d="M16,4h-4v4h4V4z"/>
<path class="st0" d="M20,0h-4v4h4V0z"/>
<path class="st0" d="M24,4h-4v4h4V4z"/>
<path class="st0" d="M32,0h-4v4h4V0z"/>
<path class="st0" d="M40,4h-4v4h4V4z"/>
<path class="st0" d="M44,0h-4v4h4V0z"/>
<path class="st0" d="M44,12h-4v4h4V12z"/>
<path class="st0" d="M36,12h-4v4h4V12z"/>
<path class="st0" d="M32,8h-4v4h4V8z"/>
<path class="st0" d="M24,16v-4c-2,0-6,0-8,0v4C18,16,22,16,24,16z"/>
<path class="st0" d="M16,16h-4v4h4V16z"/>
<path class="st0" d="M8,16V8H4v4H0v8h4v-4H8z"/>
<path class="st0" d="M8,20H4v4h4V20z"/>
<path class="st0" d="M12,24H8v4h4V24z"/>
<path class="st0" d="M16,28h-4v12h4V28z"/>
<path class="st0" d="M32,36v4h-4v4h4v8h4V40h8v-4H32z"/>
<path class="st0" d="M512,20h-4v4h4V20z"/>
<path class="st0" d="M516,32v4h4c0-2,0-6,0-8h-4V32z"/>
<path class="st0" d="M516,44h-4v-4h4v-4c-2,0-6,0-8,0c0,3.6,0,8.4,0,12c2,0,6,0,8,0v4h4v4h4c0-3.6,0-8.4,0-12h-4v-4h-4V44z"/>
<path class="st0" d="M516,52c-2,0-6,0-8,0v4h4v4h-4v32h16V60h-4v-4h-4V52z M516,64v4h-4v-4H516z"/>
<path class="st0" d="M492,0h-4c0,2,0,6,0,8h4C492,6,492,2,492,0z"/>
<path class="st0" d="M500,0h-4v4h4V0z"/>
<path class="st0" d="M496,8h-4v4h4V8z"/>
<path class="st0" d="M492,12h-4v4h4V12z"/>
<path class="st0" d="M500,12h-4v4h4V12z"/>
<path class="st0" d="M504,8h-4v4h4V8z"/>
<path class="st0" d="M508,4h-4v4h4V4z"/>
<path class="st0" d="M516,0h-4v4h4V0z"/>
<path class="st0" d="M520,4h-4v4h4V4z"/>
<path class="st0" d="M524,8h-4v4h4V8z"/>
<path class="st0" d="M528,0h-4v4h4V0z"/>
<path class="st0" d="M532,4h-4v4h4V4z"/>
<path class="st0" d="M544,0h-4v4h4V0z"/>
<path class="st0" d="M540,12v4h4c0-2,0-6,0-8h-4V12z"/>
<path class="st0" d="M528,12v4c2,0,6,0,8,0v-4C534,12,530,12,528,12z"/>
<path class="st0" d="M524,24h-4v4h4V24z"/>
<path class="st0" d="M516,16v4c2,0,6,0,8,0v-4C522,16,518,16,516,16z"/>
<path class="st0" d="M516,24h-4v4h4V24z"/>
<path class="st0" d="M512,28h-4v4h4V28z"/>
<path class="st0" d="M512,8h-4v4h4V8z"/>
<path class="st0" d="M516,12h-4v4h4V12z"/>
<path class="st0" d="M524,36h-4v4h4V36z"/>
<path class="st0" d="M576,32h-4v4h4V32z"/>
<path class="st0" d="M580,48h4c0-2,0-6,0-8h-4C580,42,580,46,580,48z"/>
<path class="st0" d="M580,8h-4c0,2,0,6,0,8h4C580,14,580,10,580,8z"/>
<path class="st0" d="M584,0h-4v4h4V0z"/>
<path class="st0" d="M576,4h-4v4h4V4z"/>
<path class="st0" d="M584,16h-4v4h4V16z"/>
<path class="st0" d="M572,0h-4v4h4V0z"/>
<path class="st0" d="M572,16h-4v4h4V16z"/>
<path class="st0" d="M584,32h-4v4h4V32z"/>
<path class="st0" d="M580,36h-4v4h4V36z"/>
<path class="st0" d="M572,36h-4v4h4V36z"/>
<path class="st0" d="M576,32h4c0-2,0-6,0-8c-2,0-6,0-8,0v4h4V32z"/>
<path class="st0" d="M572,28h-4v4h4V28z"/>
<path class="st0" d="M576,44v-4h-4v4h-4v4h4v4h4v4h4v4h-4v-4h-4v-4h-4v40h16V52h-4v-4h-4V44z M576,64v4h-4v-4H576z M576,76v-4h4v4
	H576z"/>
<path class="st0" d="M736,52h4v4h4v4h4v4h-4v-4h-4v-4h-4v36h16V56h-4v-4h-4v-4h-4v-4h4l0-4h-4v-4h-4v4l4,0v4h-4V52z"/>
<path class="st0" d="M756,36.1h4c0-2,0-6.1,0-8.1h-4v-4h-4l0,4h4C756,30,756,34.1,756,36.1z"/>
<path class="st0" d="M776,52v-4h-4v4H776v4h4v-4H776z"/>
<path class="st0" d="M740,16h-4v4h4V16z"/>
<path class="st0" d="M744,20h-4v4h4V20z"/>
<path class="st0" d="M748,12h-4v4h4V12z"/>
<path class="st0" d="M752,16h-4v4h4V16z"/>
<path class="st0" d="M760,20h-4v4h4V20z"/>
<path class="st0" d="M768,20h-4v4h4V20z"/>
<path class="st0" d="M764,32v4h4c0-2,0-6,0-8h-4v-4h-4v4h4L764,32z"/>
<path class="st0" d="M776,36h4v-4h-4v-4h-4v4h4V36z"/>
<path class="st0" d="M808,0h-4v4h4V0z"/>
<path class="st0" d="M812,0v4h4v4h4V0H812z"/>
<path class="st0" d="M808,8v4h4v4h4v-4h-4l0-4H808z"/>
<path class="st0" d="M808,16h-4v4h4V16z"/>
<path class="st0" d="M816,20h-4v4h4V20z"/>
<path class="st0" d="M820,40h-4v-4h-4v4h-4v-4h-4v8h4v4h-4l0,8h4v-4h4l0-8h4v8h-4v4h-4v4h4v4h4v4h-4v-4h-4v-4h-8v-4h-4v-4h-8v-4h-4
	v-4h4v4h4v-4h-4v-4h-4l0-4h-4v4h-8v-4h-4v4h-4v-4h-4v4h4v4h4v4h4v-4h4l0,4c4.7,0,4-0.7,4,4h4v4h-4l0,4.2L808,92h12V56h-4v-4h4V40z
	 M818.3,64.2C818.3,64.2,818.3,64.2,818.3,64.2L818.3,64.2z M800,68h4v4h-4V68z M792,64v-4h-4v-4h4v4h4v4H792z"/>
<path class="st0" d="M820,32h-4v4h4V32z"/>
<path class="st0" d="M808,28h-4v4h4V28z"/>
<path class="st0" d="M820,24h-4v4h4V24z"/>
<path class="st0" d="M812,24h-4v4h4v4h-4v4h4v-4h4v-4h-4L812,24z"/>
<path class="st0" d="M748,48.1l0,3.9h4c0-2.7,0-9.4,0-12h4v-4h-4v4l-4,0l0,4l-4,0l0,4h4"/>
<path class="st0" d="M748,32l0,4h4c0-2,0-6,0-8h-4V32z"/>
<path class="st0" d="M748,36h-4v4h4V36z"/>
<path class="st0" d="M752,8v4h4v4h4v-4h-4V8H752z"/>
<path class="st0" d="M752,4V0h-4c0,2,0,6,0,8h4V4z"/>
<path class="st0" d="M744,8h-4v4h4V8z"/>
<path class="st0" d="M740,0h-4v4h4L740,0z"/>
<path class="st0" d="M748,24h-4v4h4V24z"/>
<path class="st0" d="M740,24h-4v4l4,0l0,8h4l0-8h-4L740,24z"/>
<path class="st0" d="M188,52h4l0,4h4v4h4l0,4h-4l0-4h-4l0-4h-4v36h16V56h-4v-4h-4v-4h-4l0-4h4l0-4l-4,0l0-4h-4v4l4,0v4h-4V52z"/>
<path class="st0" d="M228,52v-4h-4v4H228v4h4v-4H228z"/>
<path class="st0" d="M192,16h-4v4h4V16z"/>
<path class="st0" d="M196,20l-4,0l0,4l4,0L196,20z"/>
<path class="st0" d="M200,24l-4,0l0,4l4,0L200,24z"/>
<path class="st0" d="M200,12h-4v4h4V12z"/>
<path class="st0" d="M204,16h-4v4h4V16z"/>
<path class="st0" d="M212,20h-4v4h4V20z"/>
<path class="st0" d="M208,24h-4v4h4V24z"/>
<path class="st0" d="M212,28h-4v8h4V28z"/>
<path class="st0" d="M216,24h-4v4h4V24z"/>
<path class="st0" d="M220,28h-4v8h4V28z"/>
<path class="st0" d="M192,24h-4v4h4V24z"/>
<path class="st0" d="M196,28h-4v8h4V28z"/>
<path class="st0" d="M204,28h-4v8h4V28z"/>
<path class="st0" d="M220,20h-4v4h4V20z"/>
<path class="st0" d="M228,28h-4v4h4V28z"/>
<path class="st0" d="M232,32h-4v4h4V32z"/>
<path class="st0" d="M260,0h-4v4h4V0z"/>
<path class="st0" d="M264,0v4h4v4h4V0H264z"/>
<path class="st0" d="M260,8v4h4v4h4v-4h-4l0-4H260z"/>
<path class="st0" d="M260,16h-4v4h4V16z"/>
<path class="st0" d="M268,20h-4v4h4V20z"/>
<path class="st0" d="M272,40h-4l0-4h-4l0,4h-4l0-4h-4v8h4v4h-4v8h4l0-4h4v-8h4v8h-4l0,4h-4l0,4h4v4h4v4h-4l0-4h-4l0-4h-8v-4h-4v-4
	h-8l0-4h-4v-4h4l0,4h4v-4h-4l0-4h-4l0-4h-4v4h-8v-4h-4v4h-4l0-4h-4v4h4v4h4v4h4v-4h4l0,4c4.7,0,4-0.7,4,4h4v4h-4l0,4.2L260,92h12V56
	h-4l0-4h4V40z M270.4,64.2C270.4,64.2,270.4,64.2,270.4,64.2L270.4,64.2z M252,68h4v4h-4V68z M244,64v-4h-4v-4h4v4h4v4H244z"/>
<path class="st0" d="M272,32h-4v4h4V32z"/>
<path class="st0" d="M260,28h-4v4h4V28z"/>
<path class="st0" d="M272,24h-4v4h4V24z"/>
<path class="st0" d="M264,24h-4v4h4v4h-4v4h4v-4h4v-4h-4L264,24z"/>
<path class="st0" d="M200,48l0,4h4c0-2.7,0-9.4,0-12h4v-4h-4v4l-4,0l0,4h-4v4H200z"/>
<path class="st0" d="M200,36h-4v4h4V36z"/>
<path class="st0" d="M204,8v4h4v4h4v-4h-4V8H204z"/>
<path class="st0" d="M204,4V0h-4c0,2,0,6,0,8h4V4z"/>
<path class="st0" d="M196,8h-4v4h4V8z"/>
<path class="st0" d="M192,0h-4v4h4L192,0z"/>
<path class="st0" d="M912,76V60h-4v-4h4v-8h-8v-4h-4v-8h-4v12h4v4h4v4h-4v-4h-4v40h44V76H912z M900,80h4v4h-4V80z M904,64h-4v-4h4
	V64z"/>
<path class="st0" d="M904,40v4h8v-8h-4v4H904z"/>
<path class="st0" d="M912,0h-4v4h4V0z"/>
<path class="st0" d="M900,0h-4v4h4V0z"/>
<path class="st0" d="M908,4h-4v4h4V4z"/>
<path class="st0" d="M904,12h-4v4h4V12z"/>
<path class="st0" d="M908,16h-4v4h4V16z"/>
<path class="st0" d="M912,20h-4v4h4V20z"/>
<path class="st0" d="M900,20h-4v4h4V20z"/>
<path class="st0" d="M908,36v-8h-4v-4h-4v12H908z"/>
<path class="st0" d="M912,8h-4v4h4V8z"/>
<path class="st0" d="M900,8h-4v4h4V8z"/>
<path class="st0" d="M1192,28h-4v8h4V28z"/>
<path class="st0" d="M1184,56h4v-4h4v4h-4v4h4v4h-4v-4h-4v32h16V56h-4v-4h4v-4h-4v-4h4v-4h-4v-4h-4v4h-4v4h4v4h-4v-4h-4V56z
	 M1192,72h-4v-4h4V72z"/>
<path class="st0" d="M1188,36h-4v4h4V36z"/>
<path class="st0" d="M1200,28h-4v8h4V28z"/>
<path class="st0" d="M1188,24h-4v4h4V24z"/>
<path class="st0" d="M1192,20h-4v4h4V20z"/>
<path class="st0" d="M1188,16h-4v4h4V16z"/>
<path class="st0" d="M1196,16h-4v4h4V16z"/>
<path class="st0" d="M1200,20h-4v4h4V20z"/>
<path class="st0" d="M1200,8h-4v4h4V8z"/>
<path class="st0" d="M1200,0h-4v4h4V0z"/>
<path class="st0" d="M1188,0h-4v8h4V0z"/>
<path class="st0" d="M1192,8h-4v4h4V8z"/>
<path class="st0" d="M980,28v-4h-4v4H980z"/>
<path class="st0" d="M976,40.1h-4v4h4V40.1z"/>
<path class="st0" d="M1048,52v-4h-4v4h-4v-4h-4c0,2,0,6,0,8h4v4h-4v-4h-3.3c-7.8,27.8-49.3,27.8-57.1,0H972h-4h-4h4v-4h4v4
	c0.8,0,3.3,0,4,0v-8c-2,0-6,0-8,0l0-8h4l0-4h-4v-4h-4v4h-4l0,4h-4v4h8v4h-8v4h4v4h-2.5h2.5h-3.6c7.7,44.5,66.5,52.1,88.3,16h-4.7v-4
	h7.1c2-3.7,3.5-7.8,4.5-12c0,0,0.4-2.1,0.4-4C1051.9,52,1048.1,52,1048,52z M964,36h4v4l-4,0L964,36z M972,64h-4v-4h4V64z M984,76
	h-4v-4h4V76z M1032,76h-4v-4h4V76z M1036,68h-4v-4h4V68z M1048,60h-4v-4h4V60z"/>
<path class="st0" d="M960,32h-4v4h4V32z"/>
<path class="st0" d="M976,28.1h-4v8h4V28.1z"/>
<path class="st0" d="M972,24h-4v4h4V24z"/>
<path class="st0" d="M976,20h-4v4h4V20z"/>
<path class="st0" d="M976,8h-4v8h4V8z"/>
<path class="st0" d="M984,12h-4v8h4V12z"/>
<path class="st0" d="M992,16h-4v4h4V16z"/>
<path class="st0" d="M996,8h-8v4h8V8z"/>
<path class="st0" d="M1004,12h-4v4h4V12z"/>
<path class="st0" d="M1000,0h-4v4h4V0z"/>
<path class="st0" d="M1008,4h-8v4h8V4z"/>
<path class="st0" d="M1016,8h-8v4h8V8z"/>
<path class="st0" d="M1020,0h-4v4h4V0z"/>
<path class="st0" d="M1028,12h4V8h-4V4h-4v4h4V12z"/>
<path class="st0" d="M1040,16v-4l-8,0l0,4H1040z"/>
<path class="st0" d="M1032,20h-4v4h4V20z"/>
<path class="st0" d="M1036,24h-4v8h4V24z"/>
<path class="st0" d="M1044,20h-4v4h4V20z"/>
<path class="st0" d="M1048,24h-4v4h4V24z"/>
<path class="st0" d="M1044,28h-4v4h4V28z"/>
<path class="st0" d="M1052,32h-8v4h8V32z"/>
<path class="st0" d="M1040,32h-4v4h4l0,4h-4v4h4v4h4v-4h4v4h4v-8h-8l0-4h-4V32z"/>
<path class="st0" d="M1036,36h-4v4h4V36z"/>
<path class="st0" d="M1028,16h-4v4h4V16z"/>
<path class="st0" d="M1024,8h-4v8h4V8z"/>
<path class="st0" d="M988,0h-4v4h4V0z"/>
<path class="st0" d="M968,16h-4v4h4V16z"/>
<path class="st0" d="M964,28h-4v4h4V28z"/>
<path class="st0" d="M379.2,55.9c0.8-3.5,0.9-7.9,0.8-11.9h-8v-4h8v-4h-12v4h0l0,11.9h-4l0-11.9h-4v8c0,0,0,0-0.1,0
	c-0.1,1.1-0.2,2.7-0.4,3.9h0c-0.7,4.3-2.3,8.4-4.5,12h0c-1.8,2.6-4,5.1-6.9,6.5v0c-1.2,0.6-2.5,1.2-4,1.5V72c-1.2,0.4-2.5,0.7-4,0.9
	c0,1.7,0,5.3,0,7.1h-4c0-1.6,0-5,0-6.6c-1.2,0.1-2.6,0.2-4,0.3v0c-3.8,0.5-8.3,0.5-12,0.5V72h-4v-4h4c0-5.5,0-18.6,0-24h-8v-4h-8v4
	h4v4h4v4h4v4h-4v-4h-4v-4h-4c0,2,0,6,0,8h4v4h-4v8h4v3.9c0,0-4,0.1-4,0.1v20c8,0,30.4,0.5,36-0.6v0c2.7-0.4,5.4-1,8-1.8v0
	c1.4-0.4,2.7-0.8,4-1.3v0c0.3-0.1,0.5-0.2,0.8-0.4h0c2.5-1,4.9-2.2,7.2-3.7v0c1.3-1,2.7-1.9,4-3v0c0.5-0.4,1-0.9,1.5-1.3h0
	c0.9-0.8,1.7-1.7,2.6-2.6v0c0.4-0.5,0.8-1,1.2-1.5h0c2.1-2.5,3.9-5.2,5.5-8h0c1.6-3.5,2.5-5,3.4-8c-1.3,0.1-4.8,0.1-6.1,0.1v-4
	C373.8,56,377.4,56,379.2,55.9z M316,60v4h-4v-4H316z M352,84h-4v-4h4V84z M368,72h-4v-4h4L368,72z M368,64h-4v-8h4V64z M376,48v4
	h-4v-4H376z"/>
<path class="st0" d="M320,0h-4v4h4V0z"/>
<path class="st0" d="M316,4h-4v4h4V4z"/>
<path class="st0" d="M320,8h-4v4h4V8z"/>
<path class="st0" d="M324,12h-4v4h4V12z"/>
<path class="st0" d="M328,16h-4v4h4V16z"/>
<path class="st0" d="M336,8h-4v4h4V8z"/>
<path class="st0" d="M336,0h-4v4h4V0z"/>
<path class="st0" d="M340,12h-4v4h4V12z"/>
<path class="st0" d="M344,4h-4v4h4V4z"/>
<path class="st0" d="M348,8h-4v4h4V8z"/>
<path class="st0" d="M352,4h-4v4h4V4z"/>
<path class="st0" d="M360,8h-8v4h8V8z"/>
<path class="st0" d="M344,16h-4v4h4V16z"/>
<path class="st0" d="M352,16h-4v4h4V16z"/>
<path class="st0" d="M364,16h-4v4h4V16z"/>
<path class="st0" d="M360,20h-4v4h4V20z"/>
<path class="st0" d="M356,24h-4v4h4V24z"/>
<path class="st0" d="M360,28h-4v4h4V28z"/>
<path class="st0" d="M368,28h-4v4h4V28z"/>
<path class="st0" d="M368,32h-8v4h8V32z"/>
<path class="st0" d="M368,20h-4v4h4V20z"/>
<path class="st0" d="M372,24h-4v4h4V24z"/>
<path class="st0" d="M376,28h-4v4h4V28z"/>
<path class="st0" d="M368,12h-4v4h4V12z"/>
<path class="st0" d="M328,4h-4v8h4V4z"/>
<path class="st0" d="M308,0h-4v4h4V0z"/>
<path class="st0" d="M308,12h-4v4h4V12z"/>
<path class="st0" d="M316,16h-8v4h8V16z"/>
<path class="st0" d="M308,20h-4v4h4V20z"/>
<path class="st0" d="M320,20h-4v4h4V20z"/>
<path class="st0" d="M316,24h-4v4h4V24z"/>
<path class="st0" d="M320,28h-4v4h4V28z"/>
<path class="st0" d="M312,36v-4h-4v-4h-4v8C306,36,310,36,312,36z"/>
<path class="st0" d="M320,36h-8v4h8V36z"/>
<path class="st0" d="M1760,16h-4v8h4V16z"/>
<path class="st0" d="M1756,24h-4v4h4V24z"/>
<path class="st0" d="M1764,32v-4h-8v4h4v8h4V32z"/>
<path class="st0" d="M1840,48h-4v4h4V48z"/>
<path class="st0" d="M1836,44h4v4h4V36h-4v4h-4v-4h4v-4c-2,0-6,0-8,0v8h-4v4h4v4h4V44z"/>
<path class="st0" d="M1828,32h-4v8h4V32z"/>
<path class="st0" d="M1820,24h-4v4h4V24z"/>
<path class="st0" d="M1824,28h-4v4h4V28z"/>
<path class="st0" d="M1832,24h-4v8h4V24z"/>
<path class="st0" d="M1840,24h-4v4h4V24z"/>
<path class="st0" d="M1792,8h-4v4h4V8z"/>
<path class="st0" d="M1792,0h-4v4h4V0z"/>
<path class="st0" d="M1796,4h-4v4h4V4z"/>
<path class="st0" d="M1796,12h-4v4h4V12z"/>
<path class="st0" d="M1804,8h-4v8h4V8z"/>
<path class="st0" d="M1812,16h-4v4h4V16z"/>
<path class="st0" d="M1816,4h-4v8h4V4z"/>
<path class="st0" d="M1808,0h-4v4h4V0z"/>
<path class="st0" d="M1824,8h-4v4h4V8z"/>
<path class="st0" d="M1828,12h-4v4h4V12z"/>
<path class="st0" d="M1832,16h-4v4h4V16z"/>
<path class="st0" d="M1820,16h-4v4h4V16z"/>
<path class="st0" d="M1824,20h-4v4h4V20z"/>
<path class="st0" d="M1780,12h-4v8h4V12z"/>
<path class="st0" d="M1772,12h-4v8h4V12z"/>
<path class="st0" d="M1768,20h-4v4h4V20z"/>
<path class="st0" d="M1772,24h-4v4h4V24z"/>
<path class="st0" d="M1772,4h-4v4h4V4z"/>
<path class="st0" d="M1784,4h-8v4h8V4z"/>
<path class="st0" d="M1768,40h-4v4h4V40z"/>
<path class="st0" d="M1872,0h-4v4h4V0z"/>
<path class="st0" d="M1876,4h-4v4h4V4z"/>
<path class="st0" d="M1872,8h-4v4h4V8z"/>
<path class="st0" d="M1876,16h-4v4h4V16z"/>
<path class="st0" d="M1880,8h-4v4h4V8z"/>
<path class="st0" d="M1884,0h-4v4h4V0z"/>
<path class="st0" d="M1888,8h-4v4h4V8z"/>
<path class="st0" d="M1892,16h4v-4c-2,0-6,0-8,0v4H1892z"/>
<path class="st0" d="M1884,16h-4v4h4V16z"/>
<path class="st0" d="M1888,20h-4v4h4V20z"/>
<path class="st0" d="M1884,24h-8v4h8V24z"/>
<path class="st0" d="M1872,24h-4v4h4V24z"/>
<path class="st0" d="M1876,28h-4c0,2,0,6,0,8c2.7,0,13.2,0,16,0v-4h-12V28z"/>
<path class="st0" d="M1888,28v4c2,0,6,0,8,0v-4h-4v-4h-4V28z"/>
<path class="st0" d="M1900,20h-8v4h8V20z"/>
<path class="st0" d="M1904,24h-4v4h4V24z"/>
<path class="st0" d="M1916,36h-4v4h4V36z"/>
<path class="st0" d="M1940,0h-4v4h4V0z"/>
<path class="st0" d="M1952,0h-4v4h4V0z"/>
<path class="st0" d="M1948,4h-4v4h4V4z"/>
<path class="st0" d="M1940,12h-4v4h4V12z"/>
<path class="st0" d="M1940,20h-4v4h4V20z"/>
<path class="st0" d="M1952,28h-4v4h4V28z"/>
<path class="st0" d="M1948,24h-8v4h8V24z"/>
<path class="st0" d="M1936,32v4h8v4h4c0-2,0-6,0-8C1945.5,32,1938.6,32,1936,32z"/>
<path class="st0" d="M1948,12h-4v4h4V12z"/>
<path class="st0" d="M1952,16h-4v8h4V16z"/>
<path class="st0" d="M1904,44h-4v4h4V44z"/>
<path class="st0" d="M1892,36v4h8c0-2,0-6,0-8h-4v4H1892z"/>
<path class="st0" d="M1872,36h-4v4h4V36z"/>
<path class="st0" d="M1880,44v-4h-4v4h-8v4h8v4h-8c0,8.1,0,31.6,0,40h16c0-5.9,0-30.6,0-36h-4v-4h4v-4h-4V44z M1880,64h-4v-4h-4v-4
	h4v4h4V64z"/>
<path class="st0" d="M1944,52v-4h-4v-4h4v-4c-2,0-6,0-8,0c0,2.6,0,17.1,0,20h-4v-4h-4v-8h-4v-4h-4v-4h-4c0,2.5,0,9.4,0,12h-4V40h-4
	V28h-4v16h4v4h-4v4h4v4h4c0,0.2,0,4,0,4.2l28,31.8h12c0-13.7,0-30.4,0-44h-4v4H1944z M1936,68v4h-4v-4H1936z M1928,60v4h-4v-4h-4v-4
	h4v4H1928z M1948,68h-4v-4h-4v-4h4v4h4V68z"/>
<path class="st0" d="M1948,44h-4v4h4V44z"/>
<path class="st0" d="M1952,40h-4v4h4V40z"/>
<path class="st0" d="M636,4h-4v4h4V4z"/>
<path class="st0" d="M648,12h4V8h4V4h-4V0h-4v4h-4v4h4V12z"/>
<path class="st0" d="M628,12h-4v4h4V12z"/>
<path class="st0" d="M624,16h-4v4h4V16z"/>
<path class="st0" d="M636,16h-8v4h8V16z"/>
<path class="st0" d="M632,24h-4v4h4V24z"/>
<path class="st0" d="M692,28h-4v4h4V28z"/>
<path class="st0" d="M704,28h-8v4h8V28z"/>
<path class="st0" d="M708,52V32h-4v4c-2,0-6,0-8,0v4h-4v4h4v4h4v4h-4v-4h-4c0,2,0,6,0,8h4v4h-4v-4h-3.3c-7.8,27.8-49.3,27.8-57.1,0
	H628v-4h-4v4h-4v-4h4V40h-4v-8c-2,0-6,0-8,0v4h4v8h4v4h-4v-4h-4c0,2,0,6,0,8h4v4h-3.6c8.9,46.7,70.7,52.4,90.7,12H700v-4h5
	c1.1-2.6,1.9-5.2,2.5-8H704v4h-4v-4h4v-4H708z M628,72h-4v-4h4V72z M644,80h-4v-4h4V80z M692,76h-4v-4h4V76z M692,68h-4v-4h4V68z
	 M700,44v-4h4v4H700z"/>
<path class="st0" d="M620,24h-4v4h4V24z"/>
<path class="st0" d="M624,40h4v12h4V36h-4c0-2,0-6,0-8c-2,0-6,0-8,0v4h4V40z"/>
<path class="st0" d="M644,8h-8v4h8V8z"/>
<path class="st0" d="M648,16h-8v4h8V16z"/>
<path class="st0" d="M664,12h-8v4h8V12z"/>
<path class="st0" d="M640,20h-4v4h4V20z"/>
<path class="st0" d="M660,0h-4v4h4V0z"/>
<path class="st0" d="M664,4h-4v4h4V4z"/>
<path class="st0" d="M672,0h-4v4h4V0z"/>
<path class="st0" d="M672,12h-4v4h4V12z"/>
<path class="st0" d="M676,16h-4v4h4V16z"/>
<path class="st0" d="M684,16h-4v4h4V16z"/>
<path class="st0" d="M688,20h-4v4h4V20z"/>
<path class="st0" d="M696,20h-4v4h4V20z"/>
<path class="st0" d="M700,16h-4v4h4V16z"/>
<path class="st0" d="M692,12h-4v4h4V12z"/>
<path class="st0" d="M688,8h-4v4h4V8z"/>
<path class="st0" d="M680,4h-4v8h4V4z"/>
<path class="st0" d="M108,0h-4v4h4V0z"/>
<path class="st0" d="M112,4h-4v4h4V4z"/>
<path class="st0" d="M104,8h-4v4h4V8z"/>
<path class="st0" d="M108,12h-4v4h4V12z"/>
<path class="st0" d="M96,4h-4v4h4V4z"/>
<path class="st0" d="M88,8h-4v4h4V8z"/>
<path class="st0" d="M96,12h-8v4h8V12z"/>
<path class="st0" d="M100,16h-4v4h4V16z"/>
<path class="st0" d="M96,20h-4v4h4V20z"/>
<path class="st0" d="M88,20h-4v4h4V20z"/>
<path class="st0" d="M84,16h-4v4h4V16z"/>
<path class="st0" d="M76,20h-4v4h4V20z"/>
<path class="st0" d="M80,24h-4v4h4V24z"/>
<path class="st0" d="M88,28h-8v4h8V28z"/>
<path class="st0" d="M76,28h-4v4h4V28z"/>
<path class="st0" d="M80,32h-4v8h4V32z"/>
<path class="st0" d="M84,40h-4v12h4V40z"/>
<path class="st0" d="M116,8h-4v4h4V8z"/>
<path class="st0" d="M120,4h-4v4h4V4z"/>
<path class="st0" d="M128,8h-4v8h4V8z"/>
<path class="st0" d="M120,12h-4v4h4V12z"/>
<path class="st0" d="M128,0h-4v4h4V0z"/>
<path class="st0" d="M140,4h-4v4h4V4z"/>
<path class="st0" d="M136,8h-4v4h4V8z"/>
<path class="st0" d="M140,12h-4v4h4V12z"/>
<path class="st0" d="M148,12h-4v4h4V12z"/>
<path class="st0" d="M144,16h-4v4h4V16z"/>
<path class="st0" d="M132,16h-4v4h4V16z"/>
<path class="st0" d="M140,20h-4v4h4V20z"/>
<path class="st0" d="M148,20h-4v4h4V20z"/>
<path class="st0" d="M156,20h-4v4h4V20z"/>
<path class="st0" d="M152,24h-4v8h4V24z"/>
<path class="st0" d="M144,28h-4v4h4V28z"/>
<path class="st0" d="M148,32h-4v4h4V32z"/>
<path class="st0" d="M148,40h-4v4h4v4h4v4h-4v-4h-4c0,2,0,6,0,8h4v4h-4v-4h-3.3c-7.8,27.8-49.3,27.8-57.1,0H80v-4h-4v4h-4v-4h4V40
	h-4v-8h-4v12h4v4h-4v-4h-4c0,2,0,6,0,8h4v4h-3.6c8.9,46.7,70.7,52.4,90.7,12H152v-4h5c1.1-2.6,1.9-5.2,2.5-8H156v4h-4v-4h4v-4h4
	c0-2,0-6,0-8h-8v-4h8v-4h-12V40z M80,72h-4v-4h4V72z M92,80h-4v-4h4V80z M144,76h-4v-4h4V76z M144,68h-4v-4h4V68z"/>
<path class="st0" d="M160,28h-4v4h4V28z"/>
<path class="st0" d="M1284,8h-4v4h4V8z"/>
<path class="st0" d="M1272,0h-4v4h4V0z"/>
<path class="st0" d="M1264,0h-4v4h4V0z"/>
<path class="st0" d="M1256,0h-4v4h4V0z"/>
<path class="st0" d="M1248,0h-4v4h4V0z"/>
<path class="st0" d="M1244,4h-4v4h4V4z"/>
<path class="st0" d="M1268,4h-4v4h4V4z"/>
<path class="st0" d="M1276,4h-4v4h4V4z"/>
<path class="st0" d="M1276,12h-4v4h4V12z"/>
<path class="st0" d="M1280,16h-4v4h4V16z"/>
<path class="st0" d="M1268,12h-8v4h8V12z"/>
<path class="st0" d="M1260,8h-4v4h4V8z"/>
<path class="st0" d="M1252,12h-4v4h4V12z"/>
<path class="st0" d="M1248,16h-4v4h4V16z"/>
<path class="st0" d="M1244,12h-4v4h4V12z"/>
<path class="st0" d="M1236,12h-4v4h4V12z"/>
<path class="st0" d="M1240,20h-8v4h8V20z"/>
<path class="st0" d="M1248,24h-8v4h8V24z"/>
<path class="st0" d="M1272,44v-4h-8v4h-4v-4h4v-4c-2,0-6,0-8,0v4c-2,0-6,0-8,0c0,2,0,6,0,8h4v-4h4v8h4v-4h8v-4H1272z"/>
<path class="st0" d="M1244,36h-4v4h4V36z"/>
<path class="st0" d="M1236,28h-4v4h4V28z"/>
<path class="st0" d="M1240,32h-4v4h4V32z"/>
<path class="st0" d="M1248,32h-4v4h4V32z"/>
<path class="st0" d="M1252,28h-4v4h4V28z"/>
<path class="st0" d="M1256,32h-4v4h4V32z"/>
<path class="st0" d="M1237.9,88.1c0.7,0.4,1.4,0.8,2.1,1.2v0c2.5,1.3,5.2,2.4,8,2.8v0.1c1.3,0.3,2.6,0.5,4,0.6v0
	c2.6,0.3,5.3,0.4,8,0.2l0,0c1.4-0.1,2.7-0.3,4-0.5v0c0.5-0.1,1-0.2,1.6-0.3h0c3.4-0.8,6.7-2.1,9.6-4v0c3.2-2.1,6-4.8,8.1-8h0
	c0.2-0.4,0.5-0.8,0.8-1.2h0c4.1-6.7,4.2-15.3,4-22.9h-4c0-2,0-6,0-8h0v0h-4v-4c0,0-4,0-4,0v8h-4v4h-4v4h0v0h4c0,0.1,0,3.9,0,4h-2
	c0,1.4-0.2,2.7-0.6,4h0c-0.3,1-0.8,1.9-1.3,2.8v0c-0.3,0.4-0.5,0.8-0.8,1.2l0,0c-1.4,1.9-3.4,3.2-5.6,4v0c-3,1.1-6.5,1.1-9.6,0.5v0
	c-4.7-1-9-3.5-12-7.3v0c-1.1-1.4-2-2.7-2.8-4.3l-11.3,11c1,1.5,2,2.9,3.2,4.2h0C1231.6,83.2,1234.5,86,1237.9,88.1L1237.9,88.1z
	 M1236,76h-4v-4h4V76z M1276,52h4v4h-4V52z M1276,76h-4v-4h4V76z M1284,68h-4v-4h-4v-4h4v4h4V68z"/>
<path class="st0" d="M1268,52h-4v4h4V52z"/>
<path class="st0" d="M1272,48h-4v4h4V48z"/>
<path class="st0" d="M466.9,56H464c0-3.6,0-8.4,0-12h-4v4h-4v4h-4v-4h-4c0,2,0,6,0,8h-12v4h-4v-4h-8v-8h4v-4h-4v-4h-4v-4h-4v4h-4v4
	h4v4h4v8h-4c0-2,0-6,0-8h-4v4h-4v4c-0.5,0-0.9,0-1.1,0c-0.6,1.4-1.2,2.9-1.7,4h2.8v4c-4.3,0-4.5,0-4.5,0c-0.9,2-10.7,25.2-11.9,28
	l18.6,0l8.5-20c9.6,0,26.3,0,36.1,0l8.1,20h18.8L466.9,56z M404,80h-4v-4h4V80z M416,64h-4v-4h4V64z M424,68h-4v-4h4V68z M444,64h-4
	v-4h4V64z M452,64h-4v-4h4V64z M456,56h4v4h-4V56z M456,64h4v4h-4V64z M464,76h-4v-4h4V76z"/>
<path class="st0" d="M440,4h-4v8h4V4z"/>
<path class="st0" d="M448,8h-4v4h4V8z"/>
<path class="st0" d="M444,0h-4v4h4V0z"/>
<path class="st0" d="M432,4h-4v4h4V4z"/>
<path class="st0" d="M444,12h-4v4h4V12z"/>
<path class="st0" d="M428,32h4v-8h4v-4h-4c0-2,0-6,0-8c-2,0-6,0-8,0v4h4v4h-4v4h4V32z"/>
<path class="st0" d="M424,24h-4v8h4V24z"/>
<path class="st0" d="M432,40v-4h-4v-4h-4v8C426,40,430,40,432,40z"/>
<path class="st0" d="M440,32h-4v4h4V32z"/>
<path class="st0" d="M448,36h-8v4h8V36z"/>
<path class="st0" d="M448,32v4h4c0-2,0-6,0-8c-2.5,0-9.4,0-12,0v4H448z"/>
<path class="st0" d="M440,24h-4v4h4V24z"/>
<path class="st0" d="M444,20h-4v4h4V20z"/>
<path class="st0" d="M448,16h-4v4h4V16z"/>
<path class="st0" d="M452,20h-4v4h4V20z"/>
<path class="st0" d="M460,36h-4v4h4V36z"/>
<path class="st0" d="M452,44v4h4c0-2,0-6,0-8h-8v4H452z"/>
<path class="st0" d="M448,44h-4v4h4V44z"/>
<path class="st0" d="M1460,0h-4v4h4V0z"/>
<path class="st0" d="M1472,0h-4v4h4V0z"/>
<path class="st0" d="M1516,0h-4v4h4V0z"/>
<path class="st0" d="M1528,0h-4v4h4V0z"/>
<path class="st0" d="M1524,4h-4v4h4V4z"/>
<path class="st0" d="M1528,8h-4v4h4V8z"/>
<path class="st0" d="M1516,8h-4v4h4V8z"/>
<path class="st0" d="M1520,12h-4v4h4V12z"/>
<path class="st0" d="M1524,16h-4v4h4V16z"/>
<path class="st0" d="M1528,20h-4v4h4V20z"/>
<path class="st0" d="M1528,28h-4v4h4V28z"/>
<path class="st0" d="M1516,20h-4v4h4V20z"/>
<path class="st0" d="M1524,24h-8v4h8V24z"/>
<path class="st0" d="M1520,32h-8v4h8V32z"/>
<path class="st0" d="M1520,40h-8v4h4v4h-4c0,3.7,0.1,8.6-0.7,12h4.7v4h-5.9c-6.5,19.9-38.9,14.6-38-8h-4.2v4h-4v-4h4v-4h4
	c0-2.5,0-9.4,0-12h-4v4h-4v-4h-4c0,2,0,6,0,8h-4c-0.1,6.6,0,13.6,1.7,20h6.3v4h-5c17,36,68.9,24,68.9-16h-3.9v-4h4v-4h-8v-4h4v-4h4
	v-4h-8V40z M1476,80h-4v-4h4V80z M1512,76h-4v-4h4V76z M1516,56v-4h4v4H1516z M1524,64v4h-4v-4H1524z"/>
<path class="st0" d="M1468,4h-4v4h4V4z"/>
<path class="st0" d="M1460,8h-4v4h4V8z"/>
<path class="st0" d="M1464,12h-4v4h4V12z"/>
<path class="st0" d="M1472,8h-4v4h4V8z"/>
<path class="st0" d="M1468,16h-4v8h4V16z"/>
<path class="st0" d="M1472,24h-4v12h4V24z"/>
<path class="st0" d="M1460,20h-4v4h4V20z"/>
<path class="st0" d="M1464,24h-4v4h4V24z"/>
<path class="st0" d="M1460,28h-4v4h4V28z"/>
<path class="st0" d="M1464,32h-4v4h4V32z"/>
<path class="st0" d="M1468,36h-4v4h4V36z"/>
<path class="st0" d="M1460,36h-4v4h4V36z"/>
<path class="st0" d="M1096,32h-4v4h4V32z"/>
<path class="st0" d="M1092,24h-4v8h4V24z"/>
<path class="st0" d="M1084,20h-4v12h4V20z"/>
<path class="st0" d="M1096,20h-4v4h4V20z"/>
<path class="st0" d="M1092,12h-4v8h4V12z"/>
<path class="st0" d="M1096,8h-4v4h4V8z"/>
<path class="st0" d="M1096,0h-4v4h4V0z"/>
<path class="st0" d="M1140,0h-4v4h4V0z"/>
<path class="st0" d="M1152,0h-4v4h4V0z"/>
<path class="st0" d="M1148,4h-4v4h4V4z"/>
<path class="st0" d="M1152,8h-4v4h4V8z"/>
<path class="st0" d="M1136,16h4v-4h4V8h-8V16z"/>
<path class="st0" d="M1152,24h-4v8h4V24z"/>
<path class="st0" d="M1148,16h-4v8h4V16z"/>
<path class="st0" d="M1140,20h-4v4h4V20z"/>
<path class="st0" d="M1144,28c-2,0-6,0-8,0v4h4v8h4v4h-4v-4h-4c0,2.7,0,9.4,0,12h4v4h4v4h-4v-4h-4.2c0.9,22.6-31.5,27.9-38,8h-5.9
	v-4h4.7c-0.8-3.4-0.8-8.3-0.7-12h-4v-4h4v-4h-8c0-2,0-6,0-8h-4v4h-4v4h4v4h4v4h-8v4h4v4h-3.9c-0.1,40,51.9,50,68.9,16h-5v-4h6.3
	c2.1-7.6,1.7-16.1,1.7-24h-4v-4h4v-4h-8V28z M1088,68h-4v-4h4V68z M1088,56v-4h4v4H1088z M1100,76h-4v-4h4V76z M1136,80h-4v-4h4V80z
	"/>
<path class="st0" d="M1088,4h-4v4h4V4z"/>
<path class="st0" d="M1084,0h-4v4h4V0z"/>
<path class="st0" d="M1084,12h-4v4h4V12z"/>
<path class="st0" d="M1400,60v-4h4v0.2l0-0.2l0,4h8v-8h-8v-8c-2,0-6,0-8,0v4h4v4h-4v4h-8v-8h-4v-4h-4l0-4h4v-4h-4v4h-4l0,8h4v4h4v4
	h-4v-4h-4v4h-4v4h4v4h-1l11.5,28h10.5l11-26.1l0.8-1.9h-4.8v-4H1400z M1380,60h4v4h-4V60z M1388,72h-4v-4h4V72z"/>
<path class="st0" d="M1836,56v-4h-4v-4h-4v8h4v4h-4v-4h-3.3c-0.9,2.9-2.3,5.6-3.9,8h3.3v4h-6.5c-14.3,17.1-45.4,8.5-49.3-12h-4.2h-4
	v-4h4v-4h-4v-8h-4v-4h-4v-4h-4v8h4v4h4v4h-4v-4h-4c0,2,0,6,0,8h4v4h-3.6c10.4,51.9,84.8,51.9,95.1,0H1836z M1760,64v-4h4v4H1760z
	 M1768,76h-4v-4h4V76z M1816,80h-4v-4h4V80z M1836,68h-4v-4h4V68z"/>
</svg>
