<?xml version="1.0" encoding="UTF-8"?><svg id="Calque_1" xmlns="http://www.w3.org/2000/svg" viewBox="0 0 1952 95.01"><defs><style>.cls-1{fill:#eaeaea;}</style></defs><path class="cls-1" d="M1568,24h-4v4h4v-4Z"/><path class="cls-1" d="M1564,0h-4V4h4V0Z"/><path class="cls-1" d="M1564,8h-4v8h4V8Z"/><path class="cls-1" d="M1568,16h-4v4h4v-4Z"/><path class="cls-1" d="M1576,12h-4v4h4v-4Z"/><path class="cls-1" d="M1572,20h-4v4h4v-4Z"/><path class="cls-1" d="M1568,28v4h4v4h4v-8h-8Z"/><path class="cls-1" d="M1568,44v8h4v4h-4v-4h-4v-8h-4v12h4v8h-4v28h16V40h-4v4h-4Zm4,32h-4v-4h4v4Zm0-12h-4v-4h4v4Z"/><path class="cls-1" d="M1564,36v8h4v-4h4v-4h-8Z"/><path class="cls-1" d="M1564,28h-4v8h4v-8Z"/><path class="cls-1" d="M1576,8V0h-4V4h-8v4h12Z"/><path class="cls-1" d="M1628,44h-4v-8h-4v12h4v4h4v4h4v4h-4v-4h-4v-4h-4v12h4v4h-4v24h16V52h-4v-4h-4v-4Zm4,24h-4v-4h4v4Z"/><path class="cls-1" d="M1636,44h-4v4h4v-4Z"/><path class="cls-1" d="M1636,28h-4v4h4v-4Z"/><path class="cls-1" d="M1632,16h-4v4h4v-4Z"/><path class="cls-1" d="M1636,20h-4v4h4v-4Z"/><path class="cls-1" d="M1624,24h-4v4h8v-8h-4v4Z"/><path class="cls-1" d="M1624,16h-4v4h4v-4Z"/><path class="cls-1" d="M1628,8h-4v4h4v-4Z"/><path class="cls-1" d="M1624,4h-4v4h4V4Z"/><path class="cls-1" d="M1620,0h-4V4h4V0Z"/><path class="cls-1" d="M1632,0h-4V4h4V0Z"/><path class="cls-1" d="M1644,0h-4V4h4V0Z"/><path class="cls-1" d="M1652,4h-8v4h8V4Z"/><path class="cls-1" d="M1656,0h-4V4h4V0Z"/><path class="cls-1" d="M1656,12h-4v4h4v-4Z"/><path class="cls-1" d="M1648,12h-4v4h4v-4Z"/><path class="cls-1" d="M1632,8v4h4v4h4V8h-8Z"/><path class="cls-1" d="M1616,8h-4v8h4V8Z"/><path class="cls-1" d="M1612,4h-4v4h4V4Z"/><path class="cls-1" d="M1604,0h-4V4h4V0Z"/><path class="cls-1" d="M1604,8h-4v8h4V8Z"/><path class="cls-1" d="M1628,32h-4v4h4v-4Z"/><path class="cls-1" d="M1628,36v8h4v-4h4v-4h-8Z"/><path class="cls-1" d="M1376,24h-8v4h4v4h-4v4h4l.02-4h3.99v-8Z"/><path class="cls-1" d="M1372,48v-8h-4v-4s-3.99,0-3.99,0v8s3.99,0,3.99,0v8h8v-4h-4Z"/><path class="cls-1" d="M1416,44h-4v-12h-4v8h-3.99v4h3.99v4h4.01v4s3.99,0,3.99,0v-8Z"/><path class="cls-1" d="M1416,40h4v-8h4v-4h-8v-4h-4v4h4v12Z"/><path class="cls-1" d="M1352,0h-4V4h4V0Z"/><path class="cls-1" d="M1360,0h-4V4h4V0Z"/><path class="cls-1" d="M1368,0h-4V4h4V0Z"/><path class="cls-1" d="M1368.01,12.04v-4.01h-4v8.01h3.98v4.01h4.01v-4.01h-3.99v-4.01Z"/><path class="cls-1" d="M1356,16h4v-4h-4v-4h-4v4l3.99,.04v3.96Z"/><path class="cls-1" d="M1360,20h-4v4h4v-4Z"/><path class="cls-1" d="M1368.01,20.07h-4v4.01h4v-4.01Z"/><path class="cls-1" d="M1364,24.07h-4v7.93h4v-7.93Z"/><path class="cls-1" d="M1380,36v-4h-4v4h4Z"/><path class="cls-1" d="M1376,36h-4v4h4v-4Z"/><path class="cls-1" d="M1420,20h-4v4h4v-4Z"/><path class="cls-1" d="M1416,12l-3.99,.04v3.96s3.98,0,3.98,0v-4Z"/><path class="cls-1" d="M1424,12h-4v4h4v-4Z"/><path class="cls-1" d="M1428,16h-4v4h4v-4Z"/><path class="cls-1" d="M1432,8h-4v4h4v-4Z"/><path class="cls-1" d="M1436,0h-4V4h4V0Z"/><path class="cls-1" d="M1424,4h-4v4h4V4Z"/><path class="cls-1" d="M1420,0h-4V4h4V0Z"/><path class="cls-1" d="M1412,20h-4v4h4v-4Z"/><path class="cls-1" d="M1408,28.08h-4v4.01h4v-4.01Z"/><path class="cls-1" d="M1404,36h-4v4h4v-4Z"/><path class="cls-1" d="M1364.01,4.01h-4.01v4.01h4.01V4.01Z"/><path class="cls-1" d="M1680,0h-4V4h4V0Z"/><path class="cls-1" d="M1688,0h-4V4h4V0Z"/><path class="cls-1" d="M1692,4h-4v4h4V4Z"/><path class="cls-1" d="M1684,4h-4v4h4V4Z"/><path class="cls-1" d="M1692,12h-4v4h4v-4Z"/><path class="cls-1" d="M1700,0h-4V4h4V0Z"/><path class="cls-1" d="M1708,4h-4v4h4V4Z"/><path class="cls-1" d="M1712,0h-4V4h4V0Z"/><path class="cls-1" d="M1720,4h-4v4h4V4Z"/><path class="cls-1" d="M1724,8h-4v4h4v-4Z"/><path class="cls-1" d="M1716,12h-4v4h4v-4Z"/><path class="cls-1" d="M1708,12h-4v8h4V12Z"/><path class="cls-1" d="M1712,20h-4v4h4v-4Z"/><path class="cls-1" d="M1712,28h-4v4h4v-4Z"/><path class="cls-1" d="M1708,24h-8v4h8v-4Z"/><path class="cls-1" d="M1704,32h-8v4h8v-4Z"/><path class="cls-1" d="M1704,36v4h-8v4h4v4h8v4h-8v-4h-4v8h4v8h4v4h-4v-4h-4v28h16V60h-4v-4h4v-12h-4v-4h4v-4h-8Zm4,52h-4v-4h4v4Z"/><path class="cls-1" d="M1700,20h-4v4h4v-4Z"/><path class="cls-1" d="M1732,0h-4V8h4V0Z"/><path class="cls-1" d="M1732,12h-8v4h8v-4Z"/><path class="cls-1" d="M1700,8h-4v8h4V8Z"/><path class="cls-1" d="M1684,12h-8v4h8v-4Z"/><path class="cls-1" d="M0,92H16V60h-4v-4h4v-4h-4v-12h-4v-12H0v4H4v12h4v8H4v-8H0v20H4v4H0v24Zm12-20h-4v-4h4v4ZM4,56h4v4H4v-4Z"/><path class="cls-1" d="M20,44v-4h-4v12h4v-4h4v4h4v-8h-8Z"/><path class="cls-1" d="M28,36h-8v4h8v-4Z"/><path class="cls-1" d="M44,44h-4v8h4v-8Z"/><path class="cls-1" d="M8,4V0H0V4H8Z"/><path class="cls-1" d="M16,4h-4v4h4V4Z"/><path class="cls-1" d="M20,0h-4V4h4V0Z"/><path class="cls-1" d="M24,4h-4v4h4V4Z"/><path class="cls-1" d="M32,0h-4V4h4V0Z"/><path class="cls-1" d="M40,4h-4v4h4V4Z"/><path class="cls-1" d="M44,0h-4V4h4V0Z"/><path class="cls-1" d="M44,12h-4v4h4v-4Z"/><path class="cls-1" d="M36,12h-4v4h4v-4Z"/><path class="cls-1" d="M32,8h-4v4h4v-4Z"/><path class="cls-1" d="M24,16v-4h-8v4h8Z"/><path class="cls-1" d="M16,16h-4v4h4v-4Z"/><path class="cls-1" d="M8,16V8H4v4H0v8H4v-4h4Z"/><path class="cls-1" d="M8,20H4v4h4v-4Z"/><path class="cls-1" d="M12,24h-4v4h4v-4Z"/><path class="cls-1" d="M16,28h-4v12h4v-12Z"/><path class="cls-1" d="M32,36v4h-4v4h4v8h4v-12h8v-4h-12Z"/><path class="cls-1" d="M512,20h-4v4h4v-4Z"/><path class="cls-1" d="M516,32v4h4v-8h-4v4Z"/><path class="cls-1" d="M516,44h-4v-4h4v-4h-8v12h8v4h4v4h4v-12h-4v-4h-4v4Z"/><path class="cls-1" d="M516,52h-8v4h4v4h-4v32h16V60h-4v-4h-4v-4Zm0,12v4h-4v-4h4Z"/><path class="cls-1" d="M492,0h-4V8h4V0Z"/><path class="cls-1" d="M500,0h-4V4h4V0Z"/><path class="cls-1" d="M496,8h-4v4h4v-4Z"/><path class="cls-1" d="M492,12h-4v4h4v-4Z"/><path class="cls-1" d="M500,12h-4v4h4v-4Z"/><path class="cls-1" d="M504,8h-4v4h4v-4Z"/><path class="cls-1" d="M508,4h-4v4h4V4Z"/><path class="cls-1" d="M516,0h-4V4h4V0Z"/><path class="cls-1" d="M520,4h-4v4h4V4Z"/><path class="cls-1" d="M524,8h-4v4h4v-4Z"/><path class="cls-1" d="M528,0h-4V4h4V0Z"/><path class="cls-1" d="M532,4h-4v4h4V4Z"/><path class="cls-1" d="M544,0h-4V4h4V0Z"/><path class="cls-1" d="M540,12v4h4V8h-4v4Z"/><path class="cls-1" d="M528,12v4h8v-4h-8Z"/><path class="cls-1" d="M524,24h-4v4h4v-4Z"/><path class="cls-1" d="M516,16v4h8v-4h-8Z"/><path class="cls-1" d="M516,24h-4v4h4v-4Z"/><path class="cls-1" d="M512,28h-4v4h4v-4Z"/><path class="cls-1" d="M512,8h-4v4h4v-4Z"/><path class="cls-1" d="M516,12h-4v4h4v-4Z"/><path class="cls-1" d="M524,36h-4v4h4v-4Z"/><path class="cls-1" d="M576,32h-4v4h4v-4Z"/><path class="cls-1" d="M580,48h4v-8h-4v8Z"/><path class="cls-1" d="M580,8h-4v8h4V8Z"/><path class="cls-1" d="M584,0h-4V4h4V0Z"/><path class="cls-1" d="M576,4h-4v4h4V4Z"/><path class="cls-1" d="M584,16h-4v4h4v-4Z"/><path class="cls-1" d="M572,0h-4V4h4V0Z"/><path class="cls-1" d="M572,16h-4v4h4v-4Z"/><path class="cls-1" d="M584,32h-4v4h4v-4Z"/><path class="cls-1" d="M580,36h-4v4h4v-4Z"/><path class="cls-1" d="M572,36h-4v4h4v-4Z"/><path class="cls-1" d="M576,32h4v-8h-8v4h4v4Z"/><path class="cls-1" d="M572,28h-4v4h4v-4Z"/><path class="cls-1" d="M576,44v-4h-4v4h-4v4h4v4h4v4h4v4h-4v-4h-4v-4h-4v40h16V52h-4v-4h-4v-4Zm0,20v4h-4v-4h4Zm0,12v-4h4v4h-4Z"/><path class="cls-1" d="M736,52h4v4h4v4h4v4h-4v-4h-4v-4h-4v36h16V56h-4v-4h-4v-4h-4v-4h4v-3.99h-4v-4.01h-4v4h4v4h-4v8Z"/><path class="cls-1" d="M756.01,36.09h4.01c0-2.01,0-6.08-.02-8.09h-4v-4h-4l.02,4h3.98c0,2.02,.02,6.08,.01,8.09Z"/><path class="cls-1" d="M776,52v-4h-4v4h4v4h4v-4h-4Z"/><path class="cls-1" d="M740,16h-4v4h4v-4Z"/><path class="cls-1" d="M744,20h-4v4h4v-4Z"/><path class="cls-1" d="M748,12h-4v4h4v-4Z"/><path class="cls-1" d="M752,16h-4v4h4v-4Z"/><path class="cls-1" d="M760,20h-4v4h4v-4Z"/><path class="cls-1" d="M768,20h-4v4h4v-4Z"/><path class="cls-1" d="M764,32v4h4v-8h-4v-4h-4v4h3.99v4Z"/><path class="cls-1" d="M776,36h4v-4h-4v-4h-4v4h4v4Z"/><path class="cls-1" d="M808,0h-4V4h4V0Z"/><path class="cls-1" d="M812,0V4h4v4h4V0h-8Z"/><path class="cls-1" d="M808.01,8v4.01h3.99v4.01h4.01v-4.01h-4.01l.02-4.01h-4.01Z"/><path class="cls-1" d="M808,16h-4v4h4v-4Z"/><path class="cls-1" d="M816,20h-4v4h4v-4Z"/><path class="cls-1" d="M820,40h-4v-4h-4v4h-4v-4h-4v8h4v4h-4v8h4v-4h4.03l-.03-8h4v8h-4v4h-4v4h4v4h4v4h-4v-4h-4v-4h-8v-4h-4v-4h-8v-4h-4v-4h4v4h4v-4h-4v-4h-4l.02-4h-4.02v4h-8v-4h-4v4h-4v-4h-4v4h4v4h4v4h4v-4h4v4c4.73-.04,4.03-.69,4,4h4v4h-4v4.16s28.02,31.84,28.02,31.84h11.98V56h-4v-4h4v-12Zm-1.65,24.19s0-.01,0-.02v.02Zm-18.35,3.81h4v4h-4v-4Zm-8-4v-4h-4v-4h4v4h4v4h-4Z"/><path class="cls-1" d="M820,32h-4v4h4v-4Z"/><path class="cls-1" d="M808,28h-4v4h4v-4Z"/><path class="cls-1" d="M820,24h-4v4h4v-4Z"/><path class="cls-1" d="M812,24h-4v4h4v4h-4v4h4v-4h4v-4h-3.99v-4Z"/><path class="cls-1" d="M748.02,48.15l-.02,3.85h4c.01-2.7,.03-9.38,0-12h4v-4h-4v4h-3.99s0,4,0,4h-4.01s.01,4,.01,4h4"/><path class="cls-1" d="M748.02,32.05l-.02,3.95h3.98c.02-1.99,.03-6.01,.02-8h-3.98v4.05Z"/><path class="cls-1" d="M748.01,36h-4.01v4.01h4.01v-4.01Z"/><path class="cls-1" d="M752,8v4h4v4h4v-4h-4v-4h-4Z"/><path class="cls-1" d="M752,3.99V0h-4c0,1.99,0,6.01,0,8h4.01V3.99Z"/><path class="cls-1" d="M744,7.99h-4.01v4.01h4.01V7.99Z"/><path class="cls-1" d="M740,0h-4V4h3.98l.02-4Z"/><path class="cls-1" d="M748,24h-4.01v4.01h4.01v-4.01Z"/><path class="cls-1" d="M740,24h-4v4h3.99s0,8,0,8h4l-.02-7.99h-3.99v-4.01Z"/><path class="cls-1" d="M188,52h4.01v4s3.99,0,3.99,0v4h4v4s-4,0-4,0v-4s-4,0-4,0v-4s-4,0-4,0v36h16.01V56h-4v-4h-4v-4h-4v-4s4,0,4,0v-3.99s-4.01,0-4.01,0v-4s-4,0-4,0v4h4.01v4h-4.01v8Z"/><path class="cls-1" d="M228.01,52v-4h-4v4h4v4h4v-4h-4Z"/><path class="cls-1" d="M192,16h-4v4h4v-4Z"/><path class="cls-1" d="M196,20h-4s0,4.01,0,4.01h4s0-4.01,0-4.01Z"/><path class="cls-1" d="M200,24h-4s0,4.01,0,4.01h4s0-4.01,0-4.01Z"/><path class="cls-1" d="M200.01,12h-4v4h4v-4Z"/><path class="cls-1" d="M204.01,16h-4v4h4v-4Z"/><path class="cls-1" d="M212,20h-4v4h4v-4Z"/><path class="cls-1" d="M208,24h-4v4h4v-4Z"/><path class="cls-1" d="M212,28h-4v8h4v-8Z"/><path class="cls-1" d="M216,24h-4v4h4v-4Z"/><path class="cls-1" d="M220,28h-4v8h4v-8Z"/><path class="cls-1" d="M192,24h-4v4h4v-4Z"/><path class="cls-1" d="M196,28h-4v8h4v-8Z"/><path class="cls-1" d="M204,28h-4v8h4v-8Z"/><path class="cls-1" d="M220.01,20h-4v4h4v-4Z"/><path class="cls-1" d="M228,28h-4v4h4v-4Z"/><path class="cls-1" d="M232,32h-4v4h4v-4Z"/><path class="cls-1" d="M260.01,0h-4V4h4V0Z"/><path class="cls-1" d="M264.01,0V4h4v4h4V0h-8Z"/><path class="cls-1" d="M260.01,8v4.01h3.99v4.01h4.01v-4.01h-4.01l.02-4.01h-4.01Z"/><path class="cls-1" d="M260.01,16h-4v4h4v-4Z"/><path class="cls-1" d="M268.01,20h-4v4h4v-4Z"/><path class="cls-1" d="M272,40h-4v-4s-3.99,0-3.99,0v4h-4.01v-4s-4,0-4,0v8h4v4h-4v8h4.01v-4s3.99,0,3.99,0v-8h4v8h-3.99v4h-4v4s3.99,0,3.99,0v4h4v4h-4v-4s-4,0-4,0v-4s-8,0-8,0v-4h-4v-4h-8v-4s-3.99,0-3.99,0v-4h3.99v4h4v-4h-3.99v-4h-4.01l.03-4h-4.03v4h-8v-4h-3.99v4h-4.01v-4s-3.99,0-3.99,0v4h3.99v4h4v4h4v-4h4.01v4c4.73-.04,4.03-.69,4,4h4v4h-4v4.16s28.02,31.84,28.02,31.84h11.97V56h-4v-4h4v-12Zm-1.64,24.19s0-.01,0-.02v.02Zm-18.36,3.81h4v4h-4v-4Zm-8-4v-4h-4v-4h4v4h4v4h-4Z"/><path class="cls-1" d="M272,32h-3.99v4h3.99v-4Z"/><path class="cls-1" d="M260.01,28h-4v4h4v-4Z"/><path class="cls-1" d="M272,24h-3.99v4h3.99v-4Z"/><path class="cls-1" d="M264.01,24h-4v4h4v4h-4v4h4v-4h4v-4h-3.99v-4Z"/><path class="cls-1" d="M200,48v4h4v-12h4.01v-4h-4v4h-3.99s-.01,4-.01,4h-4v4h4Z"/><path class="cls-1" d="M200.01,36h-4.01v4.01h4.01v-4.01Z"/><path class="cls-1" d="M204.01,8v4h4v4h4v-4h-4v-4h-4Z"/><path class="cls-1" d="M204.01,3.99V0h-4c0,1.99,0,6.01,0,8h4.01V3.99Z"/><path class="cls-1" d="M196.01,7.99h-4.01v4.01h4.01V7.99Z"/><path class="cls-1" d="M192.01,0h-4V4h3.98l.02-4Z"/><path class="cls-1" d="M912,76v-16h-4v-4h4v-8h-8v-4h-4v-8h-4v12h4v4h4v4h-4v-4h-4v40h44v-16h-28Zm-12,4h4v4h-4v-4Zm4-16h-4v-4h4v4Z"/><path class="cls-1" d="M904,40v4h8v-8h-4v4h-4Z"/><path class="cls-1" d="M912,0h-4V4h4V0Z"/><path class="cls-1" d="M900,0h-4V4h4V0Z"/><path class="cls-1" d="M908,4h-4v4h4V4Z"/><path class="cls-1" d="M904,12h-4v4h4v-4Z"/><path class="cls-1" d="M908,16h-4v4h4v-4Z"/><path class="cls-1" d="M912,20h-4v4h4v-4Z"/><path class="cls-1" d="M900,20h-4v4h4v-4Z"/><path class="cls-1" d="M908,36v-8h-4v-4h-4v12h8Z"/><path class="cls-1" d="M912,8h-4v4h4v-4Z"/><path class="cls-1" d="M900,8h-4v4h4v-4Z"/><path class="cls-1" d="M1192,28h-4v8h4v-8Z"/><path class="cls-1" d="M1184,56h4v-4h4v4h-4v4h4v4h-4v-4h-4v32h16V56h-4v-4h4v-4h-4v-4h4v-4h-4v-4h-4v4h-4v4h4v4h-4v-4h-4v12Zm8,16h-4v-4h4v4Z"/><path class="cls-1" d="M1188,36h-4v4h4v-4Z"/><path class="cls-1" d="M1200,28h-4v8h4v-8Z"/><path class="cls-1" d="M1188,24h-4v4h4v-4Z"/><path class="cls-1" d="M1192,20h-4v4h4v-4Z"/><path class="cls-1" d="M1188,16h-4v4h4v-4Z"/><path class="cls-1" d="M1196,16h-4v4h4v-4Z"/><path class="cls-1" d="M1200,20h-4v4h4v-4Z"/><path class="cls-1" d="M1200,8h-4v4h4v-4Z"/><path class="cls-1" d="M1200,0h-4V4h4V0Z"/><path class="cls-1" d="M1188,0h-4V8h4V0Z"/><path class="cls-1" d="M1192,8h-4v4h4v-4Z"/><path class="cls-1" d="M980,27.99v-4h-4v4h4Z"/><path class="cls-1" d="M976.02,40.12h-4.01v4.01h4.01v-4.01Z"/><path class="cls-1" d="M1048.01,52v-4h-4v4h-3.99v-4h-4.01v7.99h3.99v4h-4v-4h-3.34c-7.78,27.82-49.3,27.81-57.07,0h-7.59v-4h4v4h4.01v-7.99h-7.99l-.02-8.01h4v-4s-4,0-4,0v-4h-4v4h-3.99v4h-4.01v4h8v4h-8v4h4v4h-3.55c7.74,44.5,66.51,52.12,88.25,16h-4.7v-4h7.12c2-3.74,3.53-7.76,4.46-12,0,0,.44-2.12,.42-4h-3.99Zm-84-16h3.99v4h-4s.01-4,.01-4Zm7.99,28h-4v-4h4v4Zm12,12h-4v-4h4v4Zm48,0h-4v-4h4v4Zm4-8h-4v-4h4v4Zm12-8h-4v-4h4v4Z"/><path class="cls-1" d="M960,32h-4v4h4v-4Z"/><path class="cls-1" d="M976.02,28.08h-4.01v8.01h4.01v-8.01Z"/><path class="cls-1" d="M972,24h-4v4h4v-4Z"/><path class="cls-1" d="M976,20h-4v4h4v-4Z"/><path class="cls-1" d="M976,8h-4v8h4V8Z"/><path class="cls-1" d="M984,12h-4v8h4V12Z"/><path class="cls-1" d="M992,16h-4v4h4v-4Z"/><path class="cls-1" d="M996.02,8.03h-8.01v4.01h8.01v-4.01Z"/><path class="cls-1" d="M1004.03,12.04h-4.01v4.01h4.01v-4.01Z"/><path class="cls-1" d="M1000.02,0h-4V4.01h4V0Z"/><path class="cls-1" d="M1008.02,4.01h-8v4.01h8V4.01Z"/><path class="cls-1" d="M1016.01,8.03h-7.99v4.01h7.99v-4.01Z"/><path class="cls-1" d="M1020.02,0h-4.01V4.01h4.01V0Z"/><path class="cls-1" d="M1028,12h4V8h-3.99v-3.99h-4v4.01h3.99v3.99Z"/><path class="cls-1" d="M1040,16v-4l-7.98,.04-.02,3.96h8Z"/><path class="cls-1" d="M1032,20h-4v4h4v-4Z"/><path class="cls-1" d="M1036,24h-4v8h4v-8Z"/><path class="cls-1" d="M1044,20h-4v4h4v-4Z"/><path class="cls-1" d="M1048,24h-4v4h4v-4Z"/><path class="cls-1" d="M1044,28h-4v4h4v-4Z"/><path class="cls-1" d="M1052,32h-8v4h8v-4Z"/><path class="cls-1" d="M1040,32h-4v4h3.99v4s-3.99,0-3.99,0v4h4v4h4v-4h4v4h4v-8h-8v-4h-4v-4Z"/><path class="cls-1" d="M1036,36h-4v4h4v-4Z"/><path class="cls-1" d="M1028,16h-4v4h4v-4Z"/><path class="cls-1" d="M1024,8h-4v8h4V8Z"/><path class="cls-1" d="M988.02,0h-4.01V4.01h4.01V0Z"/><path class="cls-1" d="M968,16h-4v4h4v-4Z"/><path class="cls-1" d="M964,28h-4v4h4v-4Z"/><path class="cls-1" d="M379.16,55.89c.75-3.47,.9-7.87,.84-11.89h-8v-4h8v-4h-12v4h0v11.88s-3.98,0-3.98,0l-.03-11.88h-4v8h-.08c-.09,1.15-.25,2.66-.44,3.88h-.02c-.73,4.26-2.26,8.37-4.51,12.04h0c-1.84,2.63-4.01,5.08-6.94,6.49v.03c-1.2,.56-2.52,1.24-3.99,1.5v.05c-1.23,.36-2.54,.67-4.01,.91v7.07h-3.99v-6.56c-1.25,.13-2.61,.22-4.01,.29v-.02c-3.8,.46-8.3,.53-12.01,.53v-2.21h-4v-4h4v-24h-8v-4h-8v4h4v4h4v4h4v4h-4v-4h-4v-4h-4v8h4v4h-4v8h4v3.93s-3.99,.07-4,.07v20c8,0,30.45,.51,36.01-.6v.02c2.75-.43,5.38-.96,8.01-1.76v-.02c1.36-.38,2.7-.8,4.01-1.31h0c.28-.11,.53-.24,.82-.36h0c2.52-.98,4.91-2.22,7.18-3.72v.02c1.32-.98,2.73-1.88,3.99-3.03h0c.49-.41,.98-.85,1.46-1.29h0c.89-.82,1.74-1.67,2.56-2.56h0c.43-.46,.84-.95,1.24-1.45h0c2.07-2.48,3.92-5.19,5.49-8.03h-.02c1.58-3.53,2.45-5.05,3.41-8.01-1.34,.09-4.77,.09-6.15,.09v-4c1.77,.02,5.41-.02,7.16-.11Zm-63.16,4.11v4h-4v-4h4Zm36.01,23.97h-3.99v-4.01h3.99v4.01Zm15.99-11.97h-4v-4h4v4Zm0-8h-4v-8h4v8Zm8-16v4h-4v-4h4Z"/><path class="cls-1" d="M320,0h-4V4h4V0Z"/><path class="cls-1" d="M316,4h-4v4h4V4Z"/><path class="cls-1" d="M320,8h-4v4h4v-4Z"/><path class="cls-1" d="M324,12h-4v4h4v-4Z"/><path class="cls-1" d="M328,16h-4v4h4v-4Z"/><path class="cls-1" d="M336,8h-4v4h4v-4Z"/><path class="cls-1" d="M336,0h-4V4h4V0Z"/><path class="cls-1" d="M340,12h-4v4h4v-4Z"/><path class="cls-1" d="M344,4h-4v4h4V4Z"/><path class="cls-1" d="M348,8h-4v4h4v-4Z"/><path class="cls-1" d="M352,4h-4v4h4V4Z"/><path class="cls-1" d="M360,8h-8v4h8v-4Z"/><path class="cls-1" d="M344,16h-4v4h4v-4Z"/><path class="cls-1" d="M352,16h-4v4h4v-4Z"/><path class="cls-1" d="M364,16h-4v4h4v-4Z"/><path class="cls-1" d="M360,20h-4v4h4v-4Z"/><path class="cls-1" d="M356,24h-4v4h4v-4Z"/><path class="cls-1" d="M360,28h-4v4h4v-4Z"/><path class="cls-1" d="M368,28h-4v4h4v-4Z"/><path class="cls-1" d="M368,32h-8v4h8v-4Z"/><path class="cls-1" d="M368,20h-4v4h4v-4Z"/><path class="cls-1" d="M372,24h-4v4h4v-4Z"/><path class="cls-1" d="M376,28h-4v4h4v-4Z"/><path class="cls-1" d="M368,12h-4v4h4v-4Z"/><path class="cls-1" d="M328,4h-4V12h4V4Z"/><path class="cls-1" d="M308,0h-4V4h4V0Z"/><path class="cls-1" d="M308,12h-4v4h4v-4Z"/><path class="cls-1" d="M316,16h-8v4h8v-4Z"/><path class="cls-1" d="M308,20h-4v4h4v-4Z"/><path class="cls-1" d="M320,20h-4v4h4v-4Z"/><path class="cls-1" d="M316,24h-4v4h4v-4Z"/><path class="cls-1" d="M320,28h-4v4h4v-4Z"/><path class="cls-1" d="M312,36v-4h-4v-4h-4v8h8Z"/><path class="cls-1" d="M320,36h-8v4h8v-4Z"/><path class="cls-1" d="M1760,16h-4v8h4v-8Z"/><path class="cls-1" d="M1756,24h-4v4h4v-4Z"/><path class="cls-1" d="M1764,32v-4h-8v4h4v8h4v-8Z"/><path class="cls-1" d="M1840,48h-4v4h4v-4Z"/><path class="cls-1" d="M1836,44h4v4h4v-12h-4v4h-4v-4h4v-4h-8v8h-4v4h4v4h4v-4Z"/><path class="cls-1" d="M1828,32h-4v8h4v-8Z"/><path class="cls-1" d="M1820,24h-4v4h4v-4Z"/><path class="cls-1" d="M1824,28h-4v4h4v-4Z"/><path class="cls-1" d="M1832,24h-4v8h4v-8Z"/><path class="cls-1" d="M1840,24h-4v4h4v-4Z"/><path class="cls-1" d="M1792,8h-4v4h4v-4Z"/><path class="cls-1" d="M1792,0h-4V4h4V0Z"/><path class="cls-1" d="M1796,4h-4v4h4V4Z"/><path class="cls-1" d="M1796,12h-4v4h4v-4Z"/><path class="cls-1" d="M1804,8h-4v8h4V8Z"/><path class="cls-1" d="M1812,16h-4v4h4v-4Z"/><path class="cls-1" d="M1816,4h-4V12h4V4Z"/><path class="cls-1" d="M1808,0h-4V4h4V0Z"/><path class="cls-1" d="M1824,8h-4v4h4v-4Z"/><path class="cls-1" d="M1828,12h-4v4h4v-4Z"/><path class="cls-1" d="M1832,16h-4v4h4v-4Z"/><path class="cls-1" d="M1820,16h-4v4h4v-4Z"/><path class="cls-1" d="M1824,20h-4v4h4v-4Z"/><path class="cls-1" d="M1780,12h-4v8h4V12Z"/><path class="cls-1" d="M1772,12h-4v8h4V12Z"/><path class="cls-1" d="M1768,20h-4v4h4v-4Z"/><path class="cls-1" d="M1772,24h-4v4h4v-4Z"/><path class="cls-1" d="M1772,4h-4v4h4V4Z"/><path class="cls-1" d="M1784,4h-8v4h8V4Z"/><path class="cls-1" d="M1768,40h-4v4h4v-4Z"/><path class="cls-1" d="M1872,0h-4V4h4V0Z"/><path class="cls-1" d="M1876,4h-4v4h4V4Z"/><path class="cls-1" d="M1872,8h-4v4h4v-4Z"/><path class="cls-1" d="M1876,16h-4v4h4v-4Z"/><path class="cls-1" d="M1880,8h-4v4h4v-4Z"/><path class="cls-1" d="M1884,0h-4V4h4V0Z"/><path class="cls-1" d="M1888,8h-4v4h4v-4Z"/><path class="cls-1" d="M1892,16h4v-4h-8v4h4Z"/><path class="cls-1" d="M1884,16h-4v4h4v-4Z"/><path class="cls-1" d="M1888,20h-4v4h4v-4Z"/><path class="cls-1" d="M1884,24h-8v4h8v-4Z"/><path class="cls-1" d="M1872,24h-4v4h4v-4Z"/><path class="cls-1" d="M1876,28h-4v8h16v-4h-12v-4Z"/><path class="cls-1" d="M1888,28v4h8v-4h-4v-4h-4v4Z"/><path class="cls-1" d="M1900,20h-8v4h8v-4Z"/><path class="cls-1" d="M1904,24h-4v4h4v-4Z"/><path class="cls-1" d="M1916,36h-4v4h4v-4Z"/><path class="cls-1" d="M1940,0h-4V4h4V0Z"/><path class="cls-1" d="M1952,0h-4V4h4V0Z"/><path class="cls-1" d="M1948,4h-4v4h4V4Z"/><path class="cls-1" d="M1940,12h-4v4h4v-4Z"/><path class="cls-1" d="M1940,20h-4v4h4v-4Z"/><path class="cls-1" d="M1952,28h-4v4h4v-4Z"/><path class="cls-1" d="M1948,24h-8v4h8v-4Z"/><path class="cls-1" d="M1936,32v4h8v4h4v-8h-12Z"/><path class="cls-1" d="M1948,12h-4v4h4v-4Z"/><path class="cls-1" d="M1952,16h-4v8h4v-8Z"/><path class="cls-1" d="M1904,44h-4v4h4v-4Z"/><path class="cls-1" d="M1892,36v4h8v-8h-4v4h-4Z"/><path class="cls-1" d="M1872,36h-4v4h4v-4Z"/><path class="cls-1" d="M1880,44v-4h-4v4h-8v4h8v4h-8v40h16V56h-4v-4h4v-4h-4v-4Zm0,20h-4v-4h-4v-4h4v4h4v4Z"/><path class="cls-1" d="M1944,52v-4h-4v-4h4v-4h-8v20h-4v-4h-4v-8h-4v-4h-4v-4h-4v12h-4v-12h-4v-12h-4v16h4v4h-4v4h4v4h4v4.18l27.99,31.82h12.01V48h-4v4h-4Zm-8,16v4h-4v-4h4Zm-8-8v4h-4v-4h-4v-4h4v4h4Zm20,8h-4v-4h-4v-4h4v4h4v4Z"/><path class="cls-1" d="M1948,44h-4v4h4v-4Z"/><path class="cls-1" d="M1952,40h-4v4h4v-4Z"/><path class="cls-1" d="M636,4h-4v4h4V4Z"/><path class="cls-1" d="M648,12h4v-4h4V4h-4V0h-4V4h-4v4h4v4Z"/><path class="cls-1" d="M628,12h-4v4h4v-4Z"/><path class="cls-1" d="M624,16h-4v4h4v-4Z"/><path class="cls-1" d="M636,16h-8v4h8v-4Z"/><path class="cls-1" d="M632,24h-4v4h4v-4Z"/><path class="cls-1" d="M692,28h-4v4h4v-4Z"/><path class="cls-1" d="M704,28h-8v4h8v-4Z"/><path class="cls-1" d="M708,52v-20h-4v4h-8v4h-4v4h4v4h4v4h-4v-4h-4v8h4v4h-4v-4h-3.34c-7.77,27.82-49.29,27.81-57.06,0h-3.59v-4h-4v4h-4v-4h4v-12h-4v-8h-8v4h4v8h4v4h-4v-4h-4v8h4v4h-3.55c8.92,46.71,70.69,52.42,90.67,12h-3.12v-4h5.03c1.07-2.56,1.94-5.24,2.55-8h-3.58v4h-4v-4h4v-4h4Zm-80,20h-4v-4h4v4Zm16,8h-4v-4h4v4Zm48-4h-4v-4h4v4Zm0-8h-4v-4h4v4Zm8-24v-4h4v4h-4Z"/><path class="cls-1" d="M620,24h-4v4h4v-4Z"/><path class="cls-1" d="M624,40h4v12h4v-16h-4v-8h-8v4h4v8Z"/><path class="cls-1" d="M644,8h-8v4h8v-4Z"/><path class="cls-1" d="M648,16h-8v4h8v-4Z"/><path class="cls-1" d="M664,12h-8v4h8v-4Z"/><path class="cls-1" d="M640,20h-4v4h4v-4Z"/><path class="cls-1" d="M660,0h-4V4h4V0Z"/><path class="cls-1" d="M664,4h-4v4h4V4Z"/><path class="cls-1" d="M672,0h-4V4h4V0Z"/><path class="cls-1" d="M672,12h-4v4h4v-4Z"/><path class="cls-1" d="M676,16h-4v4h4v-4Z"/><path class="cls-1" d="M684,16h-4v4h4v-4Z"/><path class="cls-1" d="M688,20h-4v4h4v-4Z"/><path class="cls-1" d="M696,20h-4v4h4v-4Z"/><path class="cls-1" d="M700,16h-4v4h4v-4Z"/><path class="cls-1" d="M692,12h-4v4h4v-4Z"/><path class="cls-1" d="M688,8h-4v4h4v-4Z"/><path class="cls-1" d="M680,4h-4V12h4V4Z"/><path class="cls-1" d="M108,0h-4V4h4V0Z"/><path class="cls-1" d="M112,4h-4v4h4V4Z"/><path class="cls-1" d="M104,8h-4v4h4v-4Z"/><path class="cls-1" d="M108,12h-4v4h4v-4Z"/><path class="cls-1" d="M96,4h-4v4h4V4Z"/><path class="cls-1" d="M88,8h-4v4h4v-4Z"/><path class="cls-1" d="M96,12h-8v4h8v-4Z"/><path class="cls-1" d="M100,16h-4v4h4v-4Z"/><path class="cls-1" d="M96,20h-4v4h4v-4Z"/><path class="cls-1" d="M88,20h-4v4h4v-4Z"/><path class="cls-1" d="M84,16h-4v4h4v-4Z"/><path class="cls-1" d="M76,20h-4v4h4v-4Z"/><path class="cls-1" d="M80,24h-4v4h4v-4Z"/><path class="cls-1" d="M88,28h-8v4h8v-4Z"/><path class="cls-1" d="M76,28h-4v4h4v-4Z"/><path class="cls-1" d="M80,32h-4v8h4v-8Z"/><path class="cls-1" d="M84,40h-4v12h4v-12Z"/><path class="cls-1" d="M116,8h-4v4h4v-4Z"/><path class="cls-1" d="M120,4h-4v4h4V4Z"/><path class="cls-1" d="M128,8h-4v8h4V8Z"/><path class="cls-1" d="M120,12h-4v4h4v-4Z"/><path class="cls-1" d="M128,0h-4V4h4V0Z"/><path class="cls-1" d="M140,4h-4v4h4V4Z"/><path class="cls-1" d="M136,8h-4v4h4v-4Z"/><path class="cls-1" d="M140,12h-4v4h4v-4Z"/><path class="cls-1" d="M148,12h-4v4h4v-4Z"/><path class="cls-1" d="M144,16h-4v4h4v-4Z"/><path class="cls-1" d="M132,16h-4v4h4v-4Z"/><path class="cls-1" d="M140,20h-4v4h4v-4Z"/><path class="cls-1" d="M148,20h-4v4h4v-4Z"/><path class="cls-1" d="M156,20h-4v4h4v-4Z"/><path class="cls-1" d="M152,24h-4v8h4v-8Z"/><path class="cls-1" d="M144,28h-4v4h4v-4Z"/><path class="cls-1" d="M148,32h-4v4h4v-4Z"/><path class="cls-1" d="M148,40h-4v4h4v4h4v4h-4v-4h-4v8h4v4h-4v-4h-3.34c-7.77,27.82-49.29,27.81-57.06,0h-3.59v-4h-4v4h-4v-4h4v-12h-4v-8h-4v12h4v4h-4v-4h-4v8h4v4h-3.55c8.92,46.71,70.69,52.42,90.67,12h-3.12v-4h5.03c1.07-2.56,1.94-5.24,2.55-8h-3.58v4h-4v-4h4v-4h4v-8h-8v-4h8v-4h-12v4Zm-68,32h-4v-4h4v4Zm12,8h-4v-4h4v4Zm52-4h-4v-4h4v4Zm0-8h-4v-4h4v4Z"/><path class="cls-1" d="M160,28h-4v4h4v-4Z"/><path class="cls-1" d="M1284,8h-4v4h4v-4Z"/><path class="cls-1" d="M1272,0h-4V4h4V0Z"/><path class="cls-1" d="M1264,0h-4V4h4V0Z"/><path class="cls-1" d="M1256,0h-4V4h4V0Z"/><path class="cls-1" d="M1248,0h-4V4h4V0Z"/><path class="cls-1" d="M1244,4h-4v4h4V4Z"/><path class="cls-1" d="M1268,4h-4v4h4V4Z"/><path class="cls-1" d="M1276,4h-4v4h4V4Z"/><path class="cls-1" d="M1276,12h-4v4h4v-4Z"/><path class="cls-1" d="M1280,16h-4v4h4v-4Z"/><path class="cls-1" d="M1268,12h-8v4h8v-4Z"/><path class="cls-1" d="M1260,8h-4v4h4v-4Z"/><path class="cls-1" d="M1252,12h-4v4h4v-4Z"/><path class="cls-1" d="M1248,16h-4v4h4v-4Z"/><path class="cls-1" d="M1244,12h-4v4h4v-4Z"/><path class="cls-1" d="M1236,12h-4v4h4v-4Z"/><path class="cls-1" d="M1240,20h-8v4h8v-4Z"/><path class="cls-1" d="M1248,24h-8v4h8v-4Z"/><path class="cls-1" d="M1272,44v-4h-8v4h-4v-4h4v-4h-8v4h-8v8h4v-4h4v8h4v-4h8v-4h4Z"/><path class="cls-1" d="M1244,36h-4v4h4v-4Z"/><path class="cls-1" d="M1236,28h-4v4h4v-4Z"/><path class="cls-1" d="M1240,32h-4v4h4v-4Z"/><path class="cls-1" d="M1248,32h-4v4h4v-4Z"/><path class="cls-1" d="M1252,28h-4v4h4v-4Z"/><path class="cls-1" d="M1256,32h-4v4h4v-4Z"/><path class="cls-1" d="M1237.93,88.14c.68,.41,1.37,.81,2.07,1.17h0c2.53,1.27,5.2,2.38,8.01,2.86v.05c1.28,.29,2.62,.49,3.99,.63h0c2.55,.27,5.35,.41,7.99,.18l.02-.02c1.38-.11,2.7-.29,4.01-.53h0c.52-.11,1.04-.22,1.56-.34h-.01c3.4-.81,6.71-2.1,9.61-4.01v-.02c3.25-2.07,5.98-4.79,8.07-8.01h-.02c.25-.38,.53-.76,.76-1.16h.02c4.13-6.67,4.18-15.3,3.99-22.95h-3.99v-7.98h-.01v-.02h-3.99v-4h-4.01v8h-4v4h-4v4h.01v.04h3.99v4.02h-2.04c0,1.4-.23,2.74-.65,4.01h.02c-.33,1.02-.78,1.94-1.32,2.83h0c-.26,.4-.49,.82-.78,1.18h0c-1.38,1.9-3.37,3.18-5.57,4.01v.02c-3.01,1.06-6.51,1.14-9.64,.49h0c-4.69-.98-9.01-3.49-12.02-7.25v-.02c-1.08-1.36-2.01-2.75-2.85-4.35l-11.34,10.97c1.01,1.5,2.01,2.86,3.17,4.19h.01c2.62,3.11,5.51,5.87,8.92,7.99l.02,.02Zm-1.93-12.14h-4v-4h4v4Zm40-24h4v4h-4v-4Zm0,24h-4v-4h4v4Zm8-8h-4v-4h-4v-4h4v4h4v4Z"/><path class="cls-1" d="M1268,52h-4v4h4v-4Z"/><path class="cls-1" d="M1272,48h-4v4h4v-4Z"/><path class="cls-1" d="M466.88,56h-2.88v-12h-4v4h-4v4h-4v-4h-4v8h-12v4h-4v-4h-8v-8h4v-4h-4v-4h-4v-4h-4v4h-4v4h4v4h4v8h-4v-8h-4v4h-4v4h-1.12c-.62,1.44-1.23,2.88-1.7,4h2.82v4h-4.51c-.85,1.99-10.72,25.23-11.89,28h18.63s8.48-20,8.48-20h36.07l8.12,20h18.78l-14.81-36Zm-62.88,24h-4v-4h4v4Zm12-16h-4v-4h4v4Zm8,4h-4v-4h4v4Zm20-4h-4v-4h4v4Zm8,0h-4v-4h4v4Zm4-8h4v4h-4v-4Zm0,8h4v4h-4v-4Zm8,12h-4v-4h4v4Z"/><path class="cls-1" d="M440,4h-4V12h4V4Z"/><path class="cls-1" d="M448,8h-4v4h4v-4Z"/><path class="cls-1" d="M444,0h-4V4h4V0Z"/><path class="cls-1" d="M432,4h-4v4h4V4Z"/><path class="cls-1" d="M444,12h-4v4h4v-4Z"/><path class="cls-1" d="M428,32h4v-8h4v-4h-4V12h-8v4h4v4h-4v4h4v8Z"/><path class="cls-1" d="M424,24h-4v8h4v-8Z"/><path class="cls-1" d="M432,40v-4h-4v-4h-4v8h8Z"/><path class="cls-1" d="M440,32h-4v4h4v-4Z"/><path class="cls-1" d="M448,36h-8v4h8v-4Z"/><path class="cls-1" d="M448,32v4h4v-8h-12v4h8Z"/><path class="cls-1" d="M440,24h-4v4h4v-4Z"/><path class="cls-1" d="M444,20h-4v4h4v-4Z"/><path class="cls-1" d="M448,16h-4v4h4v-4Z"/><path class="cls-1" d="M452,20h-4v4h4v-4Z"/><path class="cls-1" d="M460,36h-4v4h4v-4Z"/><path class="cls-1" d="M452,44v4h4v-8h-8v4h4Z"/><path class="cls-1" d="M448,44h-4v4h4v-4Z"/><path class="cls-1" d="M1460,0h-4V4h4V0Z"/><path class="cls-1" d="M1472,0h-4V4h4V0Z"/><path class="cls-1" d="M1516,0h-4V4h4V0Z"/><path class="cls-1" d="M1528,0h-4V4h4V0Z"/><path class="cls-1" d="M1524,4h-4v4h4V4Z"/><path class="cls-1" d="M1528,8h-4v4h4v-4Z"/><path class="cls-1" d="M1516,8h-4v4h4v-4Z"/><path class="cls-1" d="M1520,12h-4v4h4v-4Z"/><path class="cls-1" d="M1524,16h-4v4h4v-4Z"/><path class="cls-1" d="M1528,20h-4v4h4v-4Z"/><path class="cls-1" d="M1528,28h-4v4h4v-4Z"/><path class="cls-1" d="M1516,20h-4v4h4v-4Z"/><path class="cls-1" d="M1524,24h-8v4h8v-4Z"/><path class="cls-1" d="M1520,32h-8v4h8v-4Z"/><path class="cls-1" d="M1520,40h-8v4h4v4h-4c.03,3.75,.08,8.64-.74,12h4.74v4h-5.86c-6.47,19.94-38.87,14.58-37.99-8h-4.15v4h-4v-4h4v-4h4v-12h-4v4h-4v-4h-4v8h-4c-.07,6.64,0,13.63,1.74,20h6.26v4h-4.97c16.97,36,68.91,24,68.91-16h-3.94v-4h4v-4h-8v-4h4v-4h4v-4h-8v4Zm-44,40h-4v-4h4v4Zm36-4h-4v-4h4v4Zm4-20v-4h4v4h-4Zm8,8v4h-4v-4h4Z"/><path class="cls-1" d="M1468,4h-4v4h4V4Z"/><path class="cls-1" d="M1460,8h-4v4h4v-4Z"/><path class="cls-1" d="M1464,12h-4v4h4v-4Z"/><path class="cls-1" d="M1472,8h-4v4h4v-4Z"/><path class="cls-1" d="M1468,16h-4v8h4v-8Z"/><path class="cls-1" d="M1472,24h-4v12h4v-12Z"/><path class="cls-1" d="M1460,20h-4v4h4v-4Z"/><path class="cls-1" d="M1464,24h-4v4h4v-4Z"/><path class="cls-1" d="M1460,28h-4v4h4v-4Z"/><path class="cls-1" d="M1464,32h-4v4h4v-4Z"/><path class="cls-1" d="M1468,36h-4v4h4v-4Z"/><path class="cls-1" d="M1460,36h-4v4h4v-4Z"/><path class="cls-1" d="M1096,32h-4v4h4v-4Z"/><path class="cls-1" d="M1092,24h-4v8h4v-8Z"/><path class="cls-1" d="M1084,20h-4v12h4v-12Z"/><path class="cls-1" d="M1096,20h-4v4h4v-4Z"/><path class="cls-1" d="M1092,12h-4v8h4V12Z"/><path class="cls-1" d="M1096,8h-4v4h4v-4Z"/><path class="cls-1" d="M1096,0h-4V4h4V0Z"/><path class="cls-1" d="M1140,0h-4V4h4V0Z"/><path class="cls-1" d="M1152,0h-4V4h4V0Z"/><path class="cls-1" d="M1148,4h-4v4h4V4Z"/><path class="cls-1" d="M1152,8h-4v4h4v-4Z"/><path class="cls-1" d="M1136,16h4v-4h4v-4h-8v8Z"/><path class="cls-1" d="M1152,24h-4v8h4v-8Z"/><path class="cls-1" d="M1148,16h-4v8h4v-8Z"/><path class="cls-1" d="M1140,20h-4v4h4v-4Z"/><path class="cls-1" d="M1144,28h-8v4h4v8h4v4h-4v-4h-4v12h4v4h4v4h-4v-4h-4.15c.88,22.58-31.53,27.94-37.99,8h-5.86v-4h4.74c-.82-3.35-.77-8.26-.74-12h-4v-4h4v-4h-8v-8h-4v4h-4v4h4v4h4v4h-8v4h4v4h-3.94c-.06,40,51.94,50,68.91,16h-4.97v-4h6.26c2.1-7.65,1.72-16.07,1.74-24h-4v-4h4v-4h-8v-8Zm-56,40h-4v-4h4v4Zm0-12v-4h4v4h-4Zm12,20h-4v-4h4v4Zm36,4h-4v-4h4v4Z"/><path class="cls-1" d="M1088,4h-4v4h4V4Z"/><path class="cls-1" d="M1084,0h-4V4h4V0Z"/><path class="cls-1" d="M1084,12h-4v4h4v-4Z"/><path class="cls-1" d="M1400,60v-4h4v0s0,4,0,4h8v-8h-8v-8h-8v4h4v4h-4v4h-8v-8h-4v-4h-4v-4h4v-4h-4v4h-4v8h4v4h4v4h-4v-4h-4v4h-4v4h4v4h-1.02l11.52,28h10.46l11.04-26.09,.78-1.91h-4.78v-4h-4Zm-20,0h4v4h-4v-4Zm8,12h-4v-4h4v4Z"/><path class="cls-1" d="M1836,56v-4h-4v-4h-4v8h4v4h-4v-4h-3.34c-.94,2.88-2.29,5.56-3.94,8h3.28v4h-6.48c-14.32,17.1-45.38,8.49-49.34-12h-8.18v-4h4v-4h-4v-8h-4v-4h-4v-4h-4v8h4v4h4v4h-4v-4h-4v8h4v4h-3.55c10.36,51.93,84.78,51.91,95.13,0h-7.58Zm-76,8v-4h4v4h-4Zm8,12h-4v-4h4v4Zm48,4h-4v-4h4v4Zm20-12h-4v-4h4v4Z"/></svg>